<svg width="378" height="375" viewBox="0 0 378 375" fill="none" xmlns="http://www.w3.org/2000/svg">
<path d="M318.859 286.22C310.14 278.708 313.699 259.558 325.195 254.699C338.437 245.78 331.533 241.54 345.5 248.4C351.333 248.4 377.1 254.7 375.5 267.9C373.9 281.1 369.406 282.4 367.859 281.4C372.901 298.24 353.654 290.221 352 288.9C352 307.593 338.262 304.547 333.115 298.316C328.996 293.331 327.853 287.686 328.381 284.754C327.664 288.468 326.072 292.434 318.859 286.22Z" fill="white"/>
<path d="M328.759 282.555C328.084 286.368 327.579 293.732 318.859 286.22C310.14 278.708 313.699 259.558 325.195 254.699C338.437 245.78 331.533 241.54 345.5 248.4C351.333 248.4 377.1 254.7 375.5 267.9C373.9 281.1 369.406 282.4 367.859 281.4M328.381 284.754C327.853 287.686 328.996 293.331 333.115 298.316C338.262 304.547 352 307.593 352 288.9C353.654 290.221 372.901 298.24 367.859 281.4M365 272.4C366.883 275.988 367.859 281.4 367.859 281.4" stroke="black" stroke-width="4"/>
<path d="M323.79 280.772C323.79 280.772 321.356 281.846 324.905 282.294C328.455 282.741 330.223 282.73 332.247 283.755C333.867 284.575 334.176 286.986 334.174 286.957C333.638 279.894 323.79 280.772 323.79 280.772Z" fill="black"/>
<path d="M334.174 286.957C334.172 286.928 334.176 286.986 334.174 286.957ZM334.174 286.957C333.638 279.894 323.79 280.772 323.79 280.772C323.79 280.772 321.356 281.846 324.905 282.294C328.455 282.741 330.223 282.73 332.247 283.755C333.867 284.575 334.176 286.986 334.174 286.957Z" stroke="black"/>
<path d="M107.19 108.706C113.995 110.479 116.699 119.313 111.408 123.945V123.945C109.247 125.836 106.232 126.461 103.53 125.489C78.2686 116.407 67.0664 104.68 53.7091 82.3416C51.5177 78.6768 52.3169 73.9727 55.5297 71.1602V71.1602C60.7225 66.6145 68.8766 69.4163 71.0922 75.9524C77.1315 93.769 87.119 103.479 107.19 108.706Z" fill="black"/>
<path d="M75.5439 73.9396C76.9881 78.6513 73.4262 86.3168 64.7242 88.9841C60.3951 90.311 56.3 90.0378 53.1265 88.8185C49.9253 87.5885 47.7916 85.4604 47.0885 83.1662C46.4004 80.9215 47.0369 78.2901 49.0754 75.7752C51.1105 73.2645 54.4695 70.9896 58.8716 69.6403C63.3016 68.2825 67.1912 68.2234 70.0997 69.0847C72.986 69.9394 74.847 71.6657 75.5439 73.9396Z" fill="white" stroke="black" stroke-width="3"/>
<path d="M9.63026 54.4438C12.6667 61.1091 23.5733 64.284 31.6722 64.8572C32.8415 65.8353 33.5641 67.2405 33.9599 68.7205C35.5731 74.7527 41.0933 83.1899 54.2927 82.0502C61.8156 81.4007 67.0238 78.1568 70.4815 74.3524C76.1483 68.1174 74.0113 55.8862 81.8433 52.7804C88.3221 50.2113 97.469 34.9358 83.2544 33.126C69.0398 31.3162 69.6943 51.5805 66.6254 49.0989C62.8745 46.0657 54.2858 53.8048 51.6149 60.097C50.9656 61.7926 49.6205 64.8307 49.435 63.4187C49.2031 61.6537 53.8779 52.6909 59.1434 49.7963C64.4089 46.9016 65.2999 48.4428 66.6181 47.9951C67.9363 47.5474 66.3862 46.2301 58.0158 29.1603C53.838 20.6407 49.1689 16.6053 45.5396 14.7003C42.0756 12.882 38.6548 15.556 37.6862 19.3464C37.01 21.9925 37.538 24.8023 39.1444 27.0109C41.485 30.2288 44.7065 34.6078 45.3952 35.2905C45.8164 35.7081 46.1922 36.4608 46.4962 37.2335C47.1428 38.8774 47.2483 40.903 46.1108 42.2546C45.6985 42.7444 45.0243 42.5981 44.4425 42.3308C42.2359 41.317 37.9851 38.348 31.8742 27.9473C28.746 22.6232 25.0263 20.727 21.4467 20.6089C10.6132 20.2514 9.87995 34.3873 19.7659 38.8326C25.8393 41.5636 35.3572 49.0248 35.5891 50.7898C35.821 52.5549 34.2855 53.4451 32.4132 53.3435C30.5408 53.2419 22.8979 45.7766 19.1433 44.5753C13.4306 42.7474 5.25217 44.8335 9.63026 54.4438Z" fill="white"/>
<path d="M33.0405 64.9305C24.8546 64.6378 12.8414 61.4927 9.63026 54.4438C5.25217 44.8335 13.4306 42.7474 19.1433 44.5753C22.8979 45.7766 30.5408 53.2419 32.4132 53.3435C34.2855 53.4451 35.821 52.5549 35.5891 50.7899C35.3572 49.0248 25.8393 41.5636 19.7659 38.8326V38.8326C9.87995 34.3873 10.6132 20.2514 21.4467 20.6089C25.0263 20.727 28.746 22.6232 31.8742 27.9473C37.9851 38.348 42.2359 41.317 44.4425 42.3308C45.0243 42.5981 45.6985 42.7444 46.1108 42.2546V42.2546C47.2483 40.903 47.1428 38.8774 46.4962 37.2335C46.1922 36.4608 45.8164 35.7081 45.3952 35.2905C44.7065 34.6078 41.485 30.2288 39.1444 27.0109C37.538 24.8023 37.01 21.9925 37.6862 19.3464V19.3464C38.6548 15.556 42.0756 12.882 45.5396 14.7003C49.1689 16.6053 53.838 20.6407 58.0158 29.1603C66.3862 46.2301 67.9363 47.5474 66.6181 47.9951C65.2999 48.4428 64.4089 46.9016 59.1434 49.7963C53.8779 52.6909 49.2031 61.6537 49.435 63.4187C49.6205 64.8307 50.9656 61.7926 51.6149 60.097C54.2858 53.8048 62.8745 46.0657 66.6254 49.0989C69.6943 51.5805 69.0398 31.3162 83.2544 33.126C97.469 34.9358 88.3221 50.2113 81.8433 52.7804V52.7804C74.0113 55.8862 76.1483 68.1174 70.4815 74.3524C67.0238 78.1568 61.8156 81.4007 54.2927 82.0502C41.0933 83.1899 35.5731 74.7527 33.9599 68.7205C33.5448 67.1682 32.7701 65.6982 31.4977 64.717V64.717" stroke="black" stroke-width="4"/>
<path d="M33.4051 58.0978C33.4051 58.0978 30.8762 63.5921 35.5 57C40.1238 50.4079 43.3076 49.1032 46.9048 45.0977C49.7826 41.8932 52.4438 39.5847 52.405 39.5978C42.979 42.8294 33.4051 58.0978 33.4051 58.0978Z" fill="#0F0E0E"/>
<path d="M52.405 39.5978C52.3663 39.6106 52.4438 39.5845 52.405 39.5978ZM52.405 39.5978C42.979 42.8294 33.4051 58.0978 33.4051 58.0978C33.4051 58.0978 30.8762 63.5921 35.5 57C40.1238 50.4079 43.3076 49.1032 46.9048 45.0977C49.7826 41.8932 52.4438 39.5847 52.405 39.5978Z" stroke="black" stroke-width="0.5"/>
<path d="M359 245C359 248.892 356.823 252.595 352.945 255.4C349.069 258.204 343.615 260 337.5 260C331.385 260 325.931 258.204 322.055 255.4C318.177 252.595 316 248.892 316 245C316 241.108 318.177 237.405 322.055 234.6C325.931 231.796 331.385 230 337.5 230C343.615 230 349.069 231.796 352.945 234.6C356.823 237.405 359 241.108 359 245Z" fill="white" stroke="black" stroke-width="4"/>
<path d="M286.402 179.761C281.721 175.058 283.128 166.974 289.272 164.466V164.466C292.408 163.186 296.016 163.774 298.536 166.037C323.781 188.716 334.54 207.052 346.798 237.853C348.809 242.906 346.325 248.621 341.289 250.676V250.676C336.147 252.775 330.291 250.282 328.167 245.149C317.852 220.218 308.312 201.776 286.402 179.761Z" fill="black"/>
<path d="M176 227.868C176 221.866 180.866 217 186.868 217V217C193.342 217 198.367 222.633 197.758 229.078C195.049 257.773 195.077 277.999 197.778 306.932C198.38 313.376 193.352 319 186.88 319V319C180.871 319 176 314.129 176 308.12V227.868Z" fill="black"/>
<path d="M237.952 222.951C237.474 216.52 242.535 211 248.984 211V211C255.068 211 260 215.932 260 222.016V308.018C260 314.083 255.083 319 249.018 319V319C242.563 319 237.51 313.454 238.009 307.019C240.419 275.928 240.285 254.293 237.952 222.951Z" fill="black"/>
<circle cx="219" cy="119" r="115.5" fill="#F2EAD3" stroke="black" stroke-width="5"/>
<path d="M193.039 145.424C208.183 150.492 242.931 112.728 230.95 119.614C218.968 126.499 189.708 124.361 160.343 118.754C170.676 127.098 177.895 140.356 193.039 145.424Z" fill="#0E0D0D" stroke="black" stroke-width="3"/>
<path d="M224.852 127.96C223.625 130.65 191.918 135.203 170.006 127.143L163.195 120.332C168.375 121.734 183.847 123.889 201.243 124.711C223.219 125.747 232.756 119.086 233.085 118.494C233.085 118.476 233.08 118.462 233.071 118.452C233.096 118.452 233.1 118.466 233.085 118.494C233.095 119.283 224.852 127.96 224.852 127.96Z" fill="white"/>
<path d="M170.006 127.143C191.918 135.203 223.625 130.65 224.852 127.96C224.852 127.96 233.48 118.878 233.071 118.452C233.622 118.445 224.248 125.795 201.243 124.711C183.847 123.889 168.375 121.734 163.195 120.332L170.006 127.143Z" stroke="black" stroke-width="1.5"/>
<path d="M203.554 146.631C203.505 147.326 202.708 150.167 195.411 149.662C188.115 149.156 188.404 147.215 188.089 146.307C188.137 145.611 187.688 148.308 194.984 148.814C202.281 149.319 203.602 145.935 203.554 146.631Z" fill="black"/>
<path d="M211.02 139.422C210.658 139.06 192.832 133.717 181.383 137.3C181.12 137.382 181.027 137.699 181.195 137.917C181.213 137.939 181.231 137.959 181.253 137.977C184.462 140.68 192.491 145.567 196.305 145.567C200.131 145.567 211.388 139.79 211.02 139.422Z" fill="#F80000" stroke="#F80000" stroke-width="0.5"/>
<path d="M123 181C127.257 186.055 138.452 192.527 147.995 197.475C158.122 202.726 169.58 205.29 180.156 201.013C192.396 196.063 211.206 185.03 236 160.5C273.6 123.3 316.333 127.333 333 134" stroke="black" stroke-width="2"/>
<mask id="path-22-inside-1_43_507" fill="white">
<path d="M137.119 192.559C137.362 192.43 137.654 192.399 137.977 192.466C138.3 192.533 138.649 192.698 139.002 192.951C139.356 193.204 139.709 193.54 140.04 193.94C140.371 194.34 140.674 194.796 140.931 195.282C141.188 195.769 141.395 196.276 141.54 196.774C141.685 197.273 141.765 197.753 141.775 198.188C141.785 198.623 141.725 199.004 141.599 199.309C141.473 199.614 141.282 199.837 141.039 199.966L139.079 196.263L137.119 192.559Z"/>
</mask>
<path d="M137.119 192.559C137.362 192.43 137.654 192.399 137.977 192.466C138.3 192.533 138.649 192.698 139.002 192.951C139.356 193.204 139.709 193.54 140.04 193.94C140.371 194.34 140.674 194.796 140.931 195.282C141.188 195.769 141.395 196.276 141.54 196.774C141.685 197.273 141.765 197.753 141.775 198.188C141.785 198.623 141.725 199.004 141.599 199.309C141.473 199.614 141.282 199.837 141.039 199.966L139.079 196.263L137.119 192.559Z" fill="#383535" stroke="black" mask="url(#path-22-inside-1_43_507)"/>
<mask id="path-23-inside-2_43_507" fill="white">
<path d="M141.699 185.282C141.934 185.43 142.11 185.668 142.216 185.982C142.321 186.297 142.355 186.683 142.315 187.117C142.275 187.551 142.162 188.025 141.982 188.512C141.802 189 141.559 189.49 141.267 189.957C140.975 190.423 140.639 190.856 140.279 191.23C139.919 191.604 139.542 191.913 139.168 192.138C138.795 192.364 138.434 192.501 138.104 192.543C137.775 192.585 137.484 192.531 137.248 192.383L139.473 188.833L141.699 185.282Z"/>
</mask>
<path d="M141.699 185.282C141.934 185.43 142.11 185.668 142.216 185.982C142.321 186.297 142.355 186.683 142.315 187.117C142.275 187.551 142.162 188.025 141.982 188.512C141.802 189 141.559 189.49 141.267 189.957C140.975 190.423 140.639 190.856 140.279 191.23C139.919 191.604 139.542 191.913 139.168 192.138C138.795 192.364 138.434 192.501 138.104 192.543C137.775 192.585 137.484 192.531 137.248 192.383L139.473 188.833L141.699 185.282Z" fill="#383535" stroke="black" mask="url(#path-23-inside-2_43_507)"/>
<mask id="path-24-inside-3_43_507" fill="white">
<path d="M152.323 199.424C152.705 199.222 153.162 199.173 153.669 199.278C154.176 199.383 154.723 199.642 155.278 200.039C155.833 200.435 156.386 200.962 156.905 201.59C157.424 202.217 157.899 202.933 158.302 203.696C158.706 204.459 159.031 205.254 159.258 206.036C159.485 206.818 159.61 207.571 159.626 208.254C159.641 208.936 159.548 209.533 159.35 210.012C159.152 210.49 158.854 210.84 158.472 211.042L155.398 205.233L152.323 199.424Z"/>
</mask>
<path d="M152.323 199.424C152.705 199.222 153.162 199.173 153.669 199.278C154.176 199.383 154.723 199.642 155.278 200.039C155.833 200.435 156.386 200.962 156.905 201.59C157.424 202.217 157.899 202.933 158.302 203.696C158.706 204.459 159.031 205.254 159.258 206.036C159.485 206.818 159.61 207.571 159.626 208.254C159.641 208.936 159.548 209.533 159.35 210.012C159.152 210.49 158.854 210.84 158.472 211.042L155.398 205.233L152.323 199.424Z" fill="#383535" stroke="black" mask="url(#path-24-inside-3_43_507)"/>
<mask id="path-25-inside-4_43_507" fill="white">
<path d="M159.506 188.011C159.876 188.242 160.151 188.615 160.317 189.109C160.483 189.603 160.536 190.208 160.473 190.888C160.411 191.569 160.233 192.313 159.951 193.077C159.669 193.842 159.288 194.611 158.83 195.343C158.371 196.074 157.845 196.753 157.28 197.34C156.715 197.927 156.123 198.411 155.538 198.764C154.953 199.118 154.385 199.334 153.869 199.4C153.352 199.466 152.896 199.381 152.526 199.149L156.016 193.58L159.506 188.011Z"/>
</mask>
<path d="M159.506 188.011C159.876 188.242 160.151 188.615 160.317 189.109C160.483 189.603 160.536 190.208 160.473 190.888C160.411 191.569 160.233 192.313 159.951 193.077C159.669 193.842 159.288 194.611 158.83 195.343C158.371 196.074 157.845 196.753 157.28 197.34C156.715 197.927 156.123 198.411 155.538 198.764C154.953 199.118 154.385 199.334 153.869 199.4C153.352 199.466 152.896 199.381 152.526 199.149L156.016 193.58L159.506 188.011Z" fill="#383535" stroke="black" mask="url(#path-25-inside-4_43_507)"/>
<mask id="path-26-inside-5_43_507" fill="white">
<path d="M144.497 196.086C144.784 195.934 145.127 195.897 145.508 195.976C145.889 196.055 146.3 196.25 146.717 196.548C147.134 196.846 147.549 197.242 147.939 197.713C148.329 198.185 148.686 198.722 148.989 199.295C149.293 199.869 149.536 200.466 149.707 201.054C149.878 201.641 149.972 202.207 149.983 202.72C149.995 203.232 149.925 203.681 149.776 204.041C149.627 204.4 149.403 204.663 149.117 204.815L146.807 200.45L144.497 196.086Z"/>
</mask>
<path d="M144.497 196.086C144.784 195.934 145.127 195.897 145.508 195.976C145.889 196.055 146.3 196.25 146.717 196.548C147.134 196.846 147.549 197.242 147.939 197.713C148.329 198.185 148.686 198.722 148.989 199.295C149.293 199.869 149.536 200.466 149.707 201.054C149.878 201.641 149.972 202.207 149.983 202.72C149.995 203.232 149.925 203.681 149.776 204.041C149.627 204.4 149.403 204.663 149.117 204.815L146.807 200.45L144.497 196.086Z" fill="#383535" stroke="black" mask="url(#path-26-inside-5_43_507)"/>
<mask id="path-27-inside-6_43_507" fill="white">
<path d="M149.894 187.511C150.171 187.685 150.378 187.965 150.503 188.336C150.628 188.707 150.667 189.161 150.62 189.673C150.573 190.184 150.44 190.743 150.228 191.317C150.016 191.892 149.73 192.47 149.385 193.02C149.041 193.569 148.645 194.079 148.221 194.52C147.797 194.961 147.352 195.325 146.912 195.59C146.472 195.856 146.046 196.018 145.658 196.068C145.27 196.117 144.927 196.053 144.649 195.879L147.272 191.695L149.894 187.511Z"/>
</mask>
<path d="M149.894 187.511C150.171 187.685 150.378 187.965 150.503 188.336C150.628 188.707 150.667 189.161 150.62 189.673C150.573 190.184 150.44 190.743 150.228 191.317C150.016 191.892 149.73 192.47 149.385 193.02C149.041 193.569 148.645 194.079 148.221 194.52C147.797 194.961 147.352 195.325 146.912 195.59C146.472 195.856 146.046 196.018 145.658 196.068C145.27 196.117 144.927 196.053 144.649 195.879L147.272 191.695L149.894 187.511Z" fill="#383535" stroke="black" mask="url(#path-27-inside-6_43_507)"/>
<mask id="path-28-inside-7_43_507" fill="white">
<path d="M161.323 203.424C161.705 203.222 162.162 203.173 162.669 203.278C163.176 203.383 163.723 203.642 164.278 204.039C164.833 204.435 165.386 204.962 165.905 205.59C166.424 206.217 166.899 206.933 167.302 207.696C167.706 208.459 168.031 209.254 168.258 210.036C168.485 210.818 168.61 211.571 168.626 212.254C168.641 212.936 168.548 213.533 168.35 214.012C168.152 214.49 167.854 214.84 167.472 215.042L164.398 209.233L161.323 203.424Z"/>
</mask>
<path d="M161.323 203.424C161.705 203.222 162.162 203.173 162.669 203.278C163.176 203.383 163.723 203.642 164.278 204.039C164.833 204.435 165.386 204.962 165.905 205.59C166.424 206.217 166.899 206.933 167.302 207.696C167.706 208.459 168.031 209.254 168.258 210.036C168.485 210.818 168.61 211.571 168.626 212.254C168.641 212.936 168.548 213.533 168.35 214.012C168.152 214.49 167.854 214.84 167.472 215.042L164.398 209.233L161.323 203.424Z" fill="#383535" stroke="black" mask="url(#path-28-inside-7_43_507)"/>
<mask id="path-29-inside-8_43_507" fill="white">
<path d="M168.506 192.011C168.876 192.242 169.151 192.615 169.317 193.109C169.483 193.603 169.536 194.208 169.473 194.888C169.411 195.569 169.233 196.313 168.951 197.077C168.669 197.842 168.288 198.611 167.83 199.343C167.371 200.074 166.845 200.753 166.28 201.34C165.715 201.927 165.123 202.411 164.538 202.764C163.953 203.118 163.385 203.334 162.869 203.4C162.352 203.466 161.896 203.381 161.526 203.149L165.016 197.58L168.506 192.011Z"/>
</mask>
<path d="M168.506 192.011C168.876 192.242 169.151 192.615 169.317 193.109C169.483 193.603 169.536 194.208 169.473 194.888C169.411 195.569 169.233 196.313 168.951 197.077C168.669 197.842 168.288 198.611 167.83 199.343C167.371 200.074 166.845 200.753 166.28 201.34C165.715 201.927 165.123 202.411 164.538 202.764C163.953 203.118 163.385 203.334 162.869 203.4C162.352 203.466 161.896 203.381 161.526 203.149L165.016 197.58L168.506 192.011Z" fill="#383535" stroke="black" mask="url(#path-29-inside-8_43_507)"/>
<mask id="path-30-inside-9_43_507" fill="white">
<path d="M172.323 203.424C172.705 203.222 173.162 203.173 173.669 203.278C174.176 203.383 174.723 203.642 175.278 204.039C175.833 204.435 176.386 204.962 176.905 205.59C177.424 206.217 177.899 206.933 178.302 207.696C178.706 208.459 179.031 209.254 179.258 210.036C179.485 210.818 179.61 211.571 179.626 212.254C179.641 212.936 179.548 213.533 179.35 214.012C179.152 214.49 178.854 214.84 178.472 215.042L175.398 209.233L172.323 203.424Z"/>
</mask>
<path d="M172.323 203.424C172.705 203.222 173.162 203.173 173.669 203.278C174.176 203.383 174.723 203.642 175.278 204.039C175.833 204.435 176.386 204.962 176.905 205.59C177.424 206.217 177.899 206.933 178.302 207.696C178.706 208.459 179.031 209.254 179.258 210.036C179.485 210.818 179.61 211.571 179.626 212.254C179.641 212.936 179.548 213.533 179.35 214.012C179.152 214.49 178.854 214.84 178.472 215.042L175.398 209.233L172.323 203.424Z" fill="#383535" stroke="black" mask="url(#path-30-inside-9_43_507)"/>
<mask id="path-31-inside-10_43_507" fill="white">
<path d="M179.506 192.011C179.876 192.242 180.151 192.615 180.317 193.109C180.483 193.603 180.536 194.208 180.473 194.888C180.411 195.569 180.233 196.313 179.951 197.077C179.669 197.842 179.288 198.611 178.83 199.343C178.371 200.074 177.845 200.753 177.28 201.34C176.715 201.927 176.123 202.411 175.538 202.764C174.953 203.118 174.385 203.334 173.869 203.4C173.352 203.466 172.896 203.381 172.526 203.149L176.016 197.58L179.506 192.011Z"/>
</mask>
<path d="M179.506 192.011C179.876 192.242 180.151 192.615 180.317 193.109C180.483 193.603 180.536 194.208 180.473 194.888C180.411 195.569 180.233 196.313 179.951 197.077C179.669 197.842 179.288 198.611 178.83 199.343C178.371 200.074 177.845 200.753 177.28 201.34C176.715 201.927 176.123 202.411 175.538 202.764C174.953 203.118 174.385 203.334 173.869 203.4C173.352 203.466 172.896 203.381 172.526 203.149L176.016 197.58L179.506 192.011Z" fill="#383535" stroke="black" mask="url(#path-31-inside-10_43_507)"/>
<mask id="path-32-inside-11_43_507" fill="white">
<path d="M184.355 198.857C184.707 198.608 185.154 198.501 185.67 198.541C186.187 198.581 186.762 198.767 187.363 199.09C187.964 199.412 188.58 199.865 189.175 200.421C189.77 200.977 190.332 201.626 190.83 202.331C191.327 203.036 191.751 203.784 192.076 204.53C192.401 205.277 192.621 206.008 192.724 206.683C192.826 207.358 192.81 207.962 192.674 208.462C192.539 208.962 192.288 209.347 191.936 209.596L188.145 204.227L184.355 198.857Z"/>
</mask>
<path d="M184.355 198.857C184.707 198.608 185.154 198.501 185.67 198.541C186.187 198.581 186.762 198.767 187.363 199.09C187.964 199.412 188.58 199.865 189.175 200.421C189.77 200.977 190.332 201.626 190.83 202.331C191.327 203.036 191.751 203.784 192.076 204.53C192.401 205.277 192.621 206.008 192.724 206.683C192.826 207.358 192.81 207.962 192.674 208.462C192.539 208.962 192.288 209.347 191.936 209.596L188.145 204.227L184.355 198.857Z" fill="#383535" stroke="black" mask="url(#path-32-inside-11_43_507)"/>
<mask id="path-33-inside-12_43_507" fill="white">
<path d="M190.023 186.621C190.419 186.803 190.739 187.138 190.967 187.607C191.195 188.075 191.324 188.668 191.349 189.352C191.373 190.035 191.292 190.795 191.11 191.589C190.928 192.383 190.648 193.195 190.287 193.979C189.926 194.763 189.49 195.503 189.005 196.158C188.519 196.812 187.994 197.368 187.458 197.793C186.923 198.218 186.388 198.505 185.884 198.636C185.38 198.767 184.917 198.741 184.521 198.559L187.272 192.59L190.023 186.621Z"/>
</mask>
<path d="M190.023 186.621C190.419 186.803 190.739 187.138 190.967 187.607C191.195 188.075 191.324 188.668 191.349 189.352C191.373 190.035 191.292 190.795 191.11 191.589C190.928 192.383 190.648 193.195 190.287 193.979C189.926 194.763 189.49 195.503 189.005 196.158C188.519 196.812 187.994 197.368 187.458 197.793C186.923 198.218 186.388 198.505 185.884 198.636C185.38 198.767 184.917 198.741 184.521 198.559L187.272 192.59L190.023 186.621Z" fill="#383535" stroke="black" mask="url(#path-33-inside-12_43_507)"/>
<mask id="path-34-inside-13_43_507" fill="white">
<path d="M195.674 193.104C195.992 192.812 196.422 192.648 196.939 192.622C197.456 192.595 198.05 192.707 198.688 192.95C199.325 193.193 199.994 193.564 200.655 194.039C201.315 194.515 201.956 195.087 202.54 195.723C203.123 196.359 203.639 197.046 204.056 197.745C204.474 198.444 204.785 199.142 204.973 199.797C205.161 200.453 205.222 201.055 205.151 201.568C205.081 202.081 204.881 202.495 204.563 202.787L200.119 197.945L195.674 193.104Z"/>
</mask>
<path d="M195.674 193.104C195.992 192.812 196.422 192.648 196.939 192.622C197.456 192.595 198.05 192.707 198.688 192.95C199.325 193.193 199.994 193.564 200.655 194.039C201.315 194.515 201.956 195.087 202.54 195.723C203.123 196.359 203.639 197.046 204.056 197.745C204.474 198.444 204.785 199.142 204.973 199.797C205.161 200.453 205.222 201.055 205.151 201.568C205.081 202.081 204.881 202.495 204.563 202.787L200.119 197.945L195.674 193.104Z" fill="#383535" stroke="black" mask="url(#path-34-inside-13_43_507)"/>
<mask id="path-35-inside-14_43_507" fill="white">
<path d="M199.735 180.244C200.151 180.374 200.512 180.666 200.797 181.101C201.083 181.537 201.287 182.108 201.399 182.783C201.51 183.458 201.527 184.222 201.447 185.033C201.368 185.844 201.194 186.685 200.936 187.508C200.677 188.332 200.34 189.122 199.942 189.833C199.544 190.544 199.094 191.162 198.617 191.652C198.14 192.142 197.646 192.494 197.163 192.689C196.68 192.883 196.217 192.916 195.801 192.786L197.768 186.515L199.735 180.244Z"/>
</mask>
<path d="M199.735 180.244C200.151 180.374 200.512 180.666 200.797 181.101C201.083 181.537 201.287 182.108 201.399 182.783C201.51 183.458 201.527 184.222 201.447 185.033C201.368 185.844 201.194 186.685 200.936 187.508C200.677 188.332 200.34 189.122 199.942 189.833C199.544 190.544 199.094 191.162 198.617 191.652C198.14 192.142 197.646 192.494 197.163 192.689C196.68 192.883 196.217 192.916 195.801 192.786L197.768 186.515L199.735 180.244Z" fill="#383535" stroke="black" mask="url(#path-35-inside-14_43_507)"/>
<mask id="path-36-inside-15_43_507" fill="white">
<path d="M206.029 185.977C206.307 185.647 206.712 185.429 207.222 185.337C207.731 185.245 208.335 185.28 208.998 185.44C209.662 185.6 210.372 185.882 211.088 186.269C211.804 186.657 212.512 187.143 213.172 187.699C213.832 188.255 214.431 188.871 214.935 189.511C215.438 190.151 215.836 190.803 216.106 191.43C216.376 192.056 216.513 192.645 216.509 193.163C216.504 193.681 216.359 194.117 216.081 194.447L211.055 190.212L206.029 185.977Z"/>
</mask>
<path d="M206.029 185.977C206.307 185.647 206.712 185.429 207.222 185.337C207.731 185.245 208.335 185.28 208.998 185.44C209.662 185.6 210.372 185.882 211.088 186.269C211.804 186.657 212.512 187.143 213.172 187.699C213.832 188.255 214.431 188.871 214.935 189.511C215.438 190.151 215.836 190.803 216.106 191.43C216.376 192.056 216.513 192.645 216.509 193.163C216.504 193.681 216.359 194.117 216.081 194.447L211.055 190.212L206.029 185.977Z" fill="#383535" stroke="black" mask="url(#path-36-inside-15_43_507)"/>
<mask id="path-37-inside-16_43_507" fill="white">
<path d="M208.415 172.704C208.845 172.78 209.24 173.023 209.579 173.419C209.918 173.815 210.193 174.355 210.39 175.01C210.586 175.665 210.7 176.421 210.725 177.236C210.75 178.05 210.685 178.906 210.533 179.756C210.382 180.606 210.148 181.432 209.844 182.188C209.54 182.944 209.173 183.614 208.762 184.161C208.352 184.708 207.907 185.121 207.453 185.376C206.998 185.63 206.543 185.722 206.114 185.646L207.265 179.175L208.415 172.704Z"/>
</mask>
<path d="M208.415 172.704C208.845 172.78 209.24 173.023 209.579 173.419C209.918 173.815 210.193 174.355 210.39 175.01C210.586 175.665 210.7 176.421 210.725 177.236C210.75 178.05 210.685 178.906 210.533 179.756C210.382 180.606 210.148 181.432 209.844 182.188C209.54 182.944 209.173 183.614 208.762 184.161C208.352 184.708 207.907 185.121 207.453 185.376C206.998 185.63 206.543 185.722 206.114 185.646L207.265 179.175L208.415 172.704Z" fill="#383535" stroke="black" mask="url(#path-37-inside-16_43_507)"/>
<mask id="path-38-inside-17_43_507" fill="white">
<path d="M215.626 179.259C215.859 178.896 216.234 178.629 216.727 178.473C217.221 178.316 217.824 178.274 218.502 178.348C219.181 178.422 219.921 178.611 220.681 178.904C221.44 179.197 222.205 179.588 222.93 180.055C223.656 180.523 224.329 181.057 224.909 181.628C225.49 182.198 225.968 182.794 226.316 183.381C226.664 183.968 226.875 184.535 226.937 185.049C226.998 185.563 226.91 186.014 226.676 186.377L221.151 182.818L215.626 179.259Z"/>
</mask>
<path d="M215.626 179.259C215.859 178.896 216.234 178.629 216.727 178.473C217.221 178.316 217.824 178.274 218.502 178.348C219.181 178.422 219.921 178.611 220.681 178.904C221.44 179.197 222.205 179.588 222.93 180.055C223.656 180.523 224.329 181.057 224.909 181.628C225.49 182.198 225.968 182.794 226.316 183.381C226.664 183.968 226.875 184.535 226.937 185.049C226.998 185.563 226.91 186.014 226.676 186.377L221.151 182.818L215.626 179.259Z" fill="#383535" stroke="black" mask="url(#path-38-inside-17_43_507)"/>
<mask id="path-39-inside-18_43_507" fill="white">
<path d="M216.299 165.79C216.735 165.811 217.158 166.001 217.544 166.351C217.931 166.7 218.273 167.201 218.552 167.825C218.83 168.45 219.04 169.185 219.168 169.99C219.296 170.794 219.341 171.652 219.3 172.514C219.258 173.376 219.131 174.226 218.926 175.014C218.722 175.803 218.442 176.515 218.105 177.11C217.768 177.704 217.379 178.17 216.961 178.481C216.543 178.791 216.103 178.94 215.668 178.92L215.984 172.355L216.299 165.79Z"/>
</mask>
<path d="M216.299 165.79C216.735 165.811 217.158 166.001 217.544 166.351C217.931 166.7 218.273 167.201 218.552 167.825C218.83 168.45 219.04 169.185 219.168 169.99C219.296 170.794 219.341 171.652 219.3 172.514C219.258 173.376 219.131 174.226 218.926 175.014C218.722 175.803 218.442 176.515 218.105 177.11C217.768 177.704 217.379 178.17 216.961 178.481C216.543 178.791 216.103 178.94 215.668 178.92L215.984 172.355L216.299 165.79Z" fill="#383535" stroke="black" mask="url(#path-39-inside-18_43_507)"/>
<mask id="path-40-inside-19_43_507" fill="white">
<path d="M226.901 168.441C227.087 168.052 227.424 167.739 227.894 167.521C228.363 167.303 228.956 167.184 229.638 167.171C230.321 167.158 231.079 167.251 231.87 167.444C232.661 167.638 233.469 167.929 234.248 168.3C235.027 168.671 235.763 169.115 236.412 169.607C237.061 170.099 237.611 170.629 238.03 171.166C238.45 171.704 238.732 172.239 238.859 172.741C238.985 173.243 238.955 173.702 238.77 174.092L232.836 171.267L226.901 168.441Z"/>
</mask>
<path d="M226.901 168.441C227.087 168.052 227.424 167.739 227.894 167.521C228.363 167.303 228.956 167.184 229.638 167.171C230.321 167.158 231.079 167.251 231.87 167.444C232.661 167.638 233.469 167.929 234.248 168.3C235.027 168.671 235.763 169.115 236.412 169.607C237.061 170.099 237.611 170.629 238.03 171.166C238.45 171.704 238.732 172.239 238.859 172.741C238.985 173.243 238.955 173.702 238.77 174.092L232.836 171.267L226.901 168.441Z" fill="#383535" stroke="black" mask="url(#path-40-inside-19_43_507)"/>
<mask id="path-41-inside-20_43_507" fill="white">
<path d="M225.851 154.997C226.286 154.962 226.73 155.097 227.157 155.394C227.585 155.691 227.989 156.145 228.345 156.728C228.701 157.312 229.002 158.015 229.232 158.796C229.462 159.578 229.616 160.423 229.685 161.283C229.754 162.144 229.736 163.002 229.634 163.811C229.531 164.619 229.345 165.36 229.086 165.993C228.828 166.626 228.502 167.138 228.126 167.5C227.751 167.861 227.335 168.065 226.9 168.1L226.375 161.548L225.851 154.997Z"/>
</mask>
<path d="M225.851 154.997C226.286 154.962 226.73 155.097 227.157 155.394C227.585 155.691 227.989 156.145 228.345 156.728C228.701 157.312 229.002 158.015 229.232 158.796C229.462 159.578 229.616 160.423 229.685 161.283C229.754 162.144 229.736 163.002 229.634 163.811C229.531 164.619 229.345 165.36 229.086 165.993C228.828 166.626 228.502 167.138 228.126 167.5C227.751 167.861 227.335 168.065 226.9 168.1L226.375 161.548L225.851 154.997Z" fill="#383535" stroke="black" mask="url(#path-41-inside-20_43_507)"/>
<mask id="path-42-inside-21_43_507" fill="white">
<path d="M236.901 159.441C237.087 159.052 237.424 158.739 237.894 158.521C238.363 158.303 238.956 158.184 239.638 158.171C240.321 158.158 241.079 158.251 241.87 158.444C242.661 158.638 243.469 158.929 244.248 159.3C245.027 159.671 245.763 160.115 246.412 160.607C247.061 161.099 247.611 161.629 248.03 162.166C248.45 162.704 248.732 163.239 248.859 163.741C248.985 164.243 248.955 164.702 248.77 165.092L242.836 162.267L236.901 159.441Z"/>
</mask>
<path d="M236.901 159.441C237.087 159.052 237.424 158.739 237.894 158.521C238.363 158.303 238.956 158.184 239.638 158.171C240.321 158.158 241.079 158.251 241.87 158.444C242.661 158.638 243.469 158.929 244.248 159.3C245.027 159.671 245.763 160.115 246.412 160.607C247.061 161.099 247.611 161.629 248.03 162.166C248.45 162.704 248.732 163.239 248.859 163.741C248.985 164.243 248.955 164.702 248.77 165.092L242.836 162.267L236.901 159.441Z" fill="#383535" stroke="black" mask="url(#path-42-inside-21_43_507)"/>
<mask id="path-43-inside-22_43_507" fill="white">
<path d="M235.851 145.997C236.286 145.962 236.73 146.097 237.157 146.394C237.585 146.691 237.989 147.145 238.345 147.728C238.701 148.312 239.002 149.015 239.232 149.796C239.462 150.578 239.616 151.423 239.685 152.283C239.754 153.144 239.736 154.002 239.634 154.811C239.531 155.619 239.345 156.36 239.086 156.993C238.828 157.626 238.502 158.138 238.126 158.5C237.751 158.861 237.335 159.065 236.9 159.1L236.375 152.548L235.851 145.997Z"/>
</mask>
<path d="M235.851 145.997C236.286 145.962 236.73 146.097 237.157 146.394C237.585 146.691 237.989 147.145 238.345 147.728C238.701 148.312 239.002 149.015 239.232 149.796C239.462 150.578 239.616 151.423 239.685 152.283C239.754 153.144 239.736 154.002 239.634 154.811C239.531 155.619 239.345 156.36 239.086 156.993C238.828 157.626 238.502 158.138 238.126 158.5C237.751 158.861 237.335 159.065 236.9 159.1L236.375 152.548L235.851 145.997Z" fill="#383535" stroke="black" mask="url(#path-43-inside-22_43_507)"/>
<mask id="path-44-inside-23_43_507" fill="white">
<path d="M246.901 150.441C247.087 150.052 247.424 149.739 247.894 149.521C248.363 149.303 248.956 149.184 249.638 149.171C250.321 149.158 251.079 149.251 251.87 149.444C252.661 149.638 253.469 149.929 254.248 150.3C255.027 150.671 255.763 151.115 256.412 151.607C257.061 152.099 257.611 152.629 258.03 153.166C258.45 153.704 258.732 154.239 258.859 154.741C258.985 155.243 258.955 155.702 258.77 156.092L252.836 153.267L246.901 150.441Z"/>
</mask>
<path d="M246.901 150.441C247.087 150.052 247.424 149.739 247.894 149.521C248.363 149.303 248.956 149.184 249.638 149.171C250.321 149.158 251.079 149.251 251.87 149.444C252.661 149.638 253.469 149.929 254.248 150.3C255.027 150.671 255.763 151.115 256.412 151.607C257.061 152.099 257.611 152.629 258.03 153.166C258.45 153.704 258.732 154.239 258.859 154.741C258.985 155.243 258.955 155.702 258.77 156.092L252.836 153.267L246.901 150.441Z" fill="#383535" stroke="black" mask="url(#path-44-inside-23_43_507)"/>
<mask id="path-45-inside-24_43_507" fill="white">
<path d="M245.851 136.997C246.286 136.962 246.73 137.097 247.157 137.394C247.585 137.691 247.989 138.145 248.345 138.728C248.701 139.312 249.002 140.015 249.232 140.796C249.462 141.578 249.616 142.423 249.685 143.283C249.754 144.144 249.736 145.002 249.634 145.811C249.531 146.619 249.345 147.36 249.086 147.993C248.828 148.626 248.502 149.138 248.126 149.5C247.751 149.861 247.335 150.065 246.9 150.1L246.375 143.548L245.851 136.997Z"/>
</mask>
<path d="M245.851 136.997C246.286 136.962 246.73 137.097 247.157 137.394C247.585 137.691 247.989 138.145 248.345 138.728C248.701 139.312 249.002 140.015 249.232 140.796C249.462 141.578 249.616 142.423 249.685 143.283C249.754 144.144 249.736 145.002 249.634 145.811C249.531 146.619 249.345 147.36 249.086 147.993C248.828 148.626 248.502 149.138 248.126 149.5C247.751 149.861 247.335 150.065 246.9 150.1L246.375 143.548L245.851 136.997Z" fill="#383535" stroke="black" mask="url(#path-45-inside-24_43_507)"/>
<mask id="path-46-inside-25_43_507" fill="white">
<path d="M259.901 142.441C260.087 142.052 260.424 141.739 260.894 141.521C261.363 141.303 261.956 141.184 262.638 141.171C263.321 141.158 264.079 141.251 264.87 141.444C265.661 141.638 266.469 141.929 267.248 142.3C268.027 142.671 268.763 143.115 269.412 143.607C270.061 144.099 270.611 144.629 271.03 145.166C271.45 145.704 271.732 146.239 271.859 146.741C271.985 147.243 271.955 147.702 271.77 148.092L265.836 145.267L259.901 142.441Z"/>
</mask>
<path d="M259.901 142.441C260.087 142.052 260.424 141.739 260.894 141.521C261.363 141.303 261.956 141.184 262.638 141.171C263.321 141.158 264.079 141.251 264.87 141.444C265.661 141.638 266.469 141.929 267.248 142.3C268.027 142.671 268.763 143.115 269.412 143.607C270.061 144.099 270.611 144.629 271.03 145.166C271.45 145.704 271.732 146.239 271.859 146.741C271.985 147.243 271.955 147.702 271.77 148.092L265.836 145.267L259.901 142.441Z" fill="#383535" stroke="black" mask="url(#path-46-inside-25_43_507)"/>
<mask id="path-47-inside-26_43_507" fill="white">
<path d="M258.851 128.997C259.286 128.962 259.73 129.097 260.157 129.394C260.585 129.691 260.989 130.145 261.345 130.728C261.701 131.312 262.002 132.015 262.232 132.796C262.462 133.578 262.616 134.423 262.685 135.283C262.754 136.144 262.736 137.002 262.634 137.811C262.531 138.619 262.345 139.36 262.086 139.993C261.828 140.626 261.502 141.138 261.126 141.5C260.751 141.861 260.335 142.065 259.9 142.1L259.375 135.548L258.851 128.997Z"/>
</mask>
<path d="M258.851 128.997C259.286 128.962 259.73 129.097 260.157 129.394C260.585 129.691 260.989 130.145 261.345 130.728C261.701 131.312 262.002 132.015 262.232 132.796C262.462 133.578 262.616 134.423 262.685 135.283C262.754 136.144 262.736 137.002 262.634 137.811C262.531 138.619 262.345 139.36 262.086 139.993C261.828 140.626 261.502 141.138 261.126 141.5C260.751 141.861 260.335 142.065 259.9 142.1L259.375 135.548L258.851 128.997Z" fill="#383535" stroke="black" mask="url(#path-47-inside-26_43_507)"/>
<mask id="path-48-inside-27_43_507" fill="white">
<path d="M273.901 135.441C274.087 135.052 274.424 134.739 274.894 134.521C275.363 134.303 275.956 134.184 276.638 134.171C277.321 134.158 278.079 134.251 278.87 134.444C279.661 134.638 280.469 134.929 281.248 135.3C282.027 135.671 282.763 136.115 283.412 136.607C284.061 137.099 284.611 137.629 285.03 138.166C285.45 138.704 285.732 139.239 285.859 139.741C285.985 140.243 285.955 140.702 285.77 141.092L279.836 138.267L273.901 135.441Z"/>
</mask>
<path d="M273.901 135.441C274.087 135.052 274.424 134.739 274.894 134.521C275.363 134.303 275.956 134.184 276.638 134.171C277.321 134.158 278.079 134.251 278.87 134.444C279.661 134.638 280.469 134.929 281.248 135.3C282.027 135.671 282.763 136.115 283.412 136.607C284.061 137.099 284.611 137.629 285.03 138.166C285.45 138.704 285.732 139.239 285.859 139.741C285.985 140.243 285.955 140.702 285.77 141.092L279.836 138.267L273.901 135.441Z" fill="#383535" stroke="black" mask="url(#path-48-inside-27_43_507)"/>
<mask id="path-49-inside-28_43_507" fill="white">
<path d="M272.851 121.997C273.286 121.962 273.73 122.097 274.157 122.394C274.585 122.691 274.989 123.145 275.345 123.728C275.701 124.312 276.002 125.015 276.232 125.796C276.462 126.578 276.616 127.423 276.685 128.283C276.754 129.144 276.736 130.002 276.634 130.811C276.531 131.619 276.345 132.36 276.086 132.993C275.828 133.626 275.502 134.138 275.126 134.5C274.751 134.861 274.335 135.065 273.9 135.1L273.375 128.548L272.851 121.997Z"/>
</mask>
<path d="M272.851 121.997C273.286 121.962 273.73 122.097 274.157 122.394C274.585 122.691 274.989 123.145 275.345 123.728C275.701 124.312 276.002 125.015 276.232 125.796C276.462 126.578 276.616 127.423 276.685 128.283C276.754 129.144 276.736 130.002 276.634 130.811C276.531 131.619 276.345 132.36 276.086 132.993C275.828 133.626 275.502 134.138 275.126 134.5C274.751 134.861 274.335 135.065 273.9 135.1L273.375 128.548L272.851 121.997Z" fill="#383535" stroke="black" mask="url(#path-49-inside-28_43_507)"/>
<mask id="path-50-inside-29_43_507" fill="white">
<path d="M288.047 131.294C288.356 130.992 288.78 130.816 289.296 130.774C289.812 130.732 290.41 130.825 291.054 131.049C291.699 131.273 292.378 131.623 293.053 132.078C293.728 132.534 294.386 133.086 294.988 133.704C295.591 134.322 296.127 134.993 296.566 135.679C297.004 136.365 297.337 137.053 297.544 137.703C297.752 138.353 297.831 138.952 297.776 139.467C297.721 139.982 297.534 140.402 297.225 140.703L292.636 135.999L288.047 131.294Z"/>
</mask>
<path d="M288.047 131.294C288.356 130.992 288.78 130.816 289.296 130.774C289.812 130.732 290.41 130.825 291.054 131.049C291.699 131.273 292.378 131.623 293.053 132.078C293.728 132.534 294.386 133.086 294.988 133.704C295.591 134.322 296.127 134.993 296.566 135.679C297.004 136.365 297.337 137.053 297.544 137.703C297.752 138.353 297.831 138.952 297.776 139.467C297.721 139.982 297.534 140.402 297.225 140.703L292.636 135.999L288.047 131.294Z" fill="#383535" stroke="black" mask="url(#path-50-inside-29_43_507)"/>
<mask id="path-51-inside-30_43_507" fill="white">
<path d="M291.716 118.317C292.136 118.435 292.506 118.715 292.804 119.142C293.103 119.569 293.324 120.134 293.456 120.805C293.588 121.475 293.628 122.239 293.573 123.052C293.518 123.865 293.37 124.711 293.136 125.542C292.903 126.373 292.59 127.172 292.213 127.895C291.837 128.618 291.406 129.249 290.944 129.753C290.483 130.258 289.999 130.625 289.522 130.834C289.045 131.043 288.584 131.09 288.164 130.972L289.94 124.645L291.716 118.317Z"/>
</mask>
<path d="M291.716 118.317C292.136 118.435 292.506 118.715 292.804 119.142C293.103 119.569 293.324 120.134 293.456 120.805C293.588 121.475 293.628 122.239 293.573 123.052C293.518 123.865 293.37 124.711 293.136 125.542C292.903 126.373 292.59 127.172 292.213 127.895C291.837 128.618 291.406 129.249 290.944 129.753C290.483 130.258 289.999 130.625 289.522 130.834C289.045 131.043 288.584 131.09 288.164 130.972L289.94 124.645L291.716 118.317Z" fill="#383535" stroke="black" mask="url(#path-51-inside-30_43_507)"/>
<mask id="path-52-inside-31_43_507" fill="white">
<path d="M303.185 129.552C303.579 129.376 304.039 129.358 304.538 129.497C305.036 129.636 305.564 129.931 306.091 130.364C306.619 130.797 307.135 131.36 307.61 132.021C308.086 132.682 308.512 133.428 308.863 134.217C309.215 135.005 309.485 135.82 309.659 136.616C309.833 137.411 309.907 138.171 309.876 138.853C309.846 139.535 309.713 140.124 309.483 140.589C309.253 141.053 308.932 141.382 308.538 141.558L305.862 135.555L303.185 129.552Z"/>
</mask>
<path d="M303.185 129.552C303.579 129.376 304.039 129.358 304.538 129.497C305.036 129.636 305.564 129.931 306.091 130.364C306.619 130.797 307.135 131.36 307.61 132.021C308.086 132.682 308.512 133.428 308.863 134.217C309.215 135.005 309.485 135.82 309.659 136.616C309.833 137.411 309.907 138.171 309.876 138.853C309.846 139.535 309.713 140.124 309.483 140.589C309.253 141.053 308.932 141.382 308.538 141.558L305.862 135.555L303.185 129.552Z" fill="#383535" stroke="black" mask="url(#path-52-inside-31_43_507)"/>
<mask id="path-53-inside-32_43_507" fill="white">
<path d="M311.12 118.648C311.473 118.904 311.723 119.295 311.855 119.799C311.988 120.302 312 120.909 311.891 121.584C311.783 122.259 311.556 122.99 311.223 123.733C310.89 124.477 310.458 125.219 309.951 125.918C309.445 126.617 308.874 127.258 308.271 127.806C307.668 128.354 307.044 128.797 306.437 129.11C305.829 129.424 305.248 129.601 304.728 129.632C304.209 129.663 303.759 129.547 303.406 129.291L307.263 123.97L311.12 118.648Z"/>
</mask>
<path d="M311.12 118.648C311.473 118.904 311.723 119.295 311.855 119.799C311.988 120.302 312 120.909 311.891 121.584C311.783 122.259 311.556 122.99 311.223 123.733C310.89 124.477 310.458 125.219 309.951 125.918C309.445 126.617 308.874 127.258 308.271 127.806C307.668 128.354 307.044 128.797 306.437 129.11C305.829 129.424 305.248 129.601 304.728 129.632C304.209 129.663 303.759 129.547 303.406 129.291L307.263 123.97L311.12 118.648Z" fill="#383535" stroke="black" mask="url(#path-53-inside-32_43_507)"/>
<mask id="path-54-inside-33_43_507" fill="white">
<path d="M319.309 130.214C319.74 130.186 320.178 130.327 320.597 130.631C321.017 130.934 321.41 131.393 321.755 131.982C322.099 132.571 322.389 133.278 322.606 134.063C322.823 134.847 322.964 135.695 323.021 136.556C323.078 137.417 323.049 138.275 322.937 139.082C322.825 139.889 322.631 140.627 322.367 141.257C322.103 141.886 321.773 142.393 321.397 142.748C321.021 143.104 320.606 143.302 320.175 143.33L319.742 136.772L319.309 130.214Z"/>
</mask>
<path d="M319.309 130.214C319.74 130.186 320.178 130.327 320.597 130.631C321.017 130.934 321.41 131.393 321.755 131.982C322.099 132.571 322.389 133.278 322.606 134.063C322.823 134.847 322.964 135.695 323.021 136.556C323.078 137.417 323.049 138.275 322.937 139.082C322.825 139.889 322.631 140.627 322.367 141.257C322.103 141.886 321.773 142.393 321.397 142.748C321.021 143.104 320.606 143.302 320.175 143.33L319.742 136.772L319.309 130.214Z" fill="#383535" stroke="black" mask="url(#path-54-inside-33_43_507)"/>
<mask id="path-55-inside-34_43_507" fill="white">
<path d="M330.529 122.731C330.771 123.094 330.87 123.547 330.82 124.065C330.77 124.584 330.571 125.157 330.236 125.753C329.9 126.349 329.434 126.955 328.864 127.538C328.295 128.12 327.632 128.667 326.915 129.147C326.198 129.627 325.44 130.032 324.685 130.337C323.93 130.642 323.191 130.842 322.513 130.925C321.834 131.009 321.228 130.974 320.73 130.823C320.231 130.672 319.85 130.408 319.607 130.046L325.068 126.389L330.529 122.731Z"/>
</mask>
<path d="M330.529 122.731C330.771 123.094 330.87 123.547 330.82 124.065C330.77 124.584 330.571 125.157 330.236 125.753C329.9 126.349 329.434 126.955 328.864 127.538C328.295 128.12 327.632 128.667 326.915 129.147C326.198 129.627 325.44 130.032 324.685 130.337C323.93 130.642 323.191 130.842 322.513 130.925C321.834 131.009 321.228 130.974 320.73 130.823C320.231 130.672 319.85 130.408 319.607 130.046L325.068 126.389L330.529 122.731Z" fill="#383535" stroke="black" mask="url(#path-55-inside-34_43_507)"/>
<path d="M194.641 75.586C195.514 84.1506 194.454 92.0432 192.084 97.8696C189.694 103.742 186.097 107.263 182.03 107.678C177.964 108.092 173.73 105.369 170.205 100.1C166.707 94.8714 164.077 87.3549 163.204 78.7902C162.331 70.2256 163.391 62.333 165.761 56.5067C168.151 50.6341 171.748 47.1129 175.815 46.6984C179.881 46.2839 184.115 49.0069 187.64 54.2766C191.138 59.5048 193.768 67.0213 194.641 75.586Z" stroke="black" stroke-width="2"/>
<ellipse cx="182.034" cy="91.9371" rx="7.73334" ry="11.2723" transform="rotate(-5.81985 182.034 91.9371)" fill="black"/>
<ellipse cx="182.797" cy="86.1719" rx="1.6" ry="2.02006" transform="rotate(-5.81985 182.797 86.1719)" fill="white"/>
<path d="M201.196 77.4005C198.41 85.0212 197.601 92.4942 198.501 98.3938C199.407 104.335 201.987 108.431 205.735 109.802C209.483 111.172 214.098 109.705 218.621 105.749C223.113 101.82 227.315 95.5877 230.101 87.967C232.887 80.3462 233.695 72.8732 232.796 66.9736C231.89 61.0328 229.31 56.936 225.561 55.5658C221.813 54.1956 217.199 55.6624 212.675 59.6185C208.183 63.5471 203.982 69.7797 201.196 77.4005Z" stroke="black" stroke-width="2"/>
<ellipse cx="7.54367" cy="11.0392" rx="7.54367" ry="11.0392" transform="matrix(-0.939213 -0.343336 -0.343336 0.939213 222.75 86.18)" fill="black"/>
<ellipse cx="1.56076" cy="1.90679" rx="1.56076" ry="1.90679" transform="matrix(-0.939213 -0.343336 -0.343336 0.939213 214.241 89.0717)" fill="white"/>
<path d="M191.521 36.1593C191.521 36.1593 198.134 39.7698 187.086 40.0261C176.038 40.2823 171.502 40.8413 165.213 43.62C160.181 45.8429 159.274 53.6834 159.28 53.5844C160.84 29.6169 191.521 36.1593 191.521 36.1593Z" fill="#0F0E0E"/>
<path d="M159.262 53.8813C159.267 53.7819 159.273 53.6829 159.28 53.5844M159.28 53.5844C160.84 29.6169 191.521 36.1593 191.521 36.1593C191.521 36.1593 198.134 39.7698 187.086 40.0261C176.038 40.2823 171.502 40.8413 165.213 43.62C160.181 45.8429 159.274 53.6834 159.28 53.5844Z" stroke="black"/>
<path d="M212.919 38.3023C212.919 38.3023 204.218 39.95 214.5 44C224.782 48.0499 230.182 49.315 235.127 54.0918C239.083 57.9132 237.146 65.8706 237.174 65.7757C243.974 42.7399 212.919 38.3023 212.919 38.3023Z" fill="#0F0E0E"/>
<path d="M237.174 65.7757C237.203 65.6804 237.146 65.8704 237.174 65.7757ZM237.174 65.7757C243.974 42.7399 212.919 38.3023 212.919 38.3023C212.919 38.3023 204.218 39.95 214.5 44C224.782 48.0499 230.182 49.315 235.127 54.0918C239.083 57.9132 237.146 65.8706 237.174 65.7757Z" stroke="black"/>
<path d="M158.803 321.074C158.803 321.074 158.803 306.239 162.422 304.543C165.204 302.914 168.518 302.44 171.705 302.936C176.367 303.661 184.248 304.543 194.992 304.543C195.303 304.543 195.609 304.543 195.908 304.544C204.139 304.552 210.214 312.873 210.914 321.074C211.276 325.313 204.762 327.008 208.381 331.247C211.276 334.638 212 350.179 212 357.526C209.829 358.233 199.189 361.341 174.002 368.123C148.815 374.905 129.008 368.123 122.253 363.884C121.601 362.14 122.415 350.744 122.415 350.744C122.415 350.744 123.565 344.631 124.424 341.843C128.188 329.636 181.333 336.519 166.765 325.313C163.91 323.117 158.803 321.074 158.803 321.074Z" fill="#E9BE56"/>
<path d="M122.415 350.744C122.415 350.744 123.565 344.631 124.424 341.843C128.188 329.636 181.333 336.519 166.765 325.313C163.91 323.117 158.803 321.074 158.803 321.074C158.803 321.074 158.803 306.239 162.422 304.543V304.543C165.204 302.914 168.518 302.44 171.705 302.936C176.367 303.661 184.248 304.543 194.992 304.543C195.303 304.543 195.609 304.543 195.908 304.544C204.139 304.552 210.214 312.873 210.914 321.074V321.074C211.276 325.313 204.762 327.008 208.381 331.247C211.276 334.638 212 350.179 212 357.526C209.829 358.233 199.189 361.341 174.002 368.123C148.815 374.905 129.008 368.123 122.253 363.884C121.601 362.14 122.415 350.744 122.415 350.744ZM122.415 350.744C122.415 350.744 148.346 361.172 170.059 355.407C191.772 349.642 211.14 343.256 211.381 343.963" stroke="black" stroke-width="7"/>
<path d="M275.197 321.074C275.197 321.074 273.159 311.696 272.135 307.041C271.783 305.443 270.781 304.076 269.369 303.25C268.002 302.449 266.377 302.216 264.819 302.506C260.839 303.248 252.025 304.543 239.008 304.543C238.697 304.543 238.391 304.543 238.092 304.544C229.861 304.552 223.786 312.873 223.086 321.074C222.724 325.313 229.238 327.008 225.619 331.247C222.724 334.638 222 350.179 222 357.526C224.171 358.233 234.811 361.341 259.998 368.123C285.185 374.905 304.992 368.123 311.747 363.884C312.399 362.14 311.585 350.744 311.585 350.744C311.585 350.744 310.435 344.631 309.576 341.843C305.812 329.636 252.667 336.519 267.235 325.313C270.09 323.117 275.197 321.074 275.197 321.074Z" fill="#E9BE56"/>
<path d="M311.585 350.744C311.585 350.744 310.435 344.631 309.576 341.843C305.812 329.636 252.667 336.519 267.235 325.313C270.09 323.117 275.197 321.074 275.197 321.074C275.197 321.074 273.159 311.696 272.135 307.041C271.783 305.443 270.781 304.076 269.369 303.25V303.25C268.002 302.449 266.377 302.216 264.819 302.506C260.839 303.248 252.025 304.543 239.008 304.543C238.697 304.543 238.391 304.543 238.092 304.544C229.861 304.552 223.786 312.873 223.086 321.074V321.074C222.724 325.313 229.238 327.008 225.619 331.247C222.724 334.638 222 350.179 222 357.526C224.171 358.233 234.811 361.341 259.998 368.123C285.185 374.905 304.992 368.123 311.747 363.884C312.399 362.14 311.585 350.744 311.585 350.744ZM311.585 350.744C311.585 350.744 285.654 361.172 263.941 355.407C242.228 349.642 222.86 343.256 222.619 343.963" stroke="black" stroke-width="7"/>
</svg>
