<svg width="361" height="405" viewBox="0 0 361 405" fill="none" xmlns="http://www.w3.org/2000/svg">
<rect x="138" y="278" width="17" height="70" rx="8.5" fill="black"/>
<rect x="138" y="331" width="17" height="70" rx="8.5" fill="black"/>
<rect x="201" y="278" width="17" height="70" rx="8.5" fill="black"/>
<rect x="201" y="331" width="17" height="70" rx="8.5" fill="black"/>
<path d="M79.3007 354.933C85.6433 345.33 77.001 327.874 64.616 326.331C49.4454 321.358 54.9321 315.397 43.363 325.803C37.7504 327.393 14.6752 340.475 19.8113 352.74C24.9474 365.004 29.6258 365.03 30.842 363.647C30.5789 381.223 46.9126 368.263 48.1441 366.542C53.2375 384.527 65.6254 377.853 68.8806 370.455C71.4847 364.537 71.0469 358.795 69.7399 356.117C71.4417 359.496 74.0539 362.878 79.3007 354.933Z" fill="white"/>
<path d="M68.7771 354.104C70.4655 357.589 72.9582 364.537 79.3007 354.933C85.6433 345.33 77.001 327.874 64.616 326.331C49.4454 321.358 54.9321 315.397 43.363 325.803C37.7504 327.393 14.6752 340.475 19.8113 352.74C24.9474 365.004 29.6258 365.03 30.842 363.647M69.7399 356.117C71.0469 358.795 71.4847 364.537 68.8806 370.455C65.6254 377.853 53.2375 384.527 48.1441 366.542C46.9126 368.263 30.5789 381.223 30.842 363.647M31.1402 354.208C30.3058 358.174 30.842 363.647 30.842 363.647" stroke="black" stroke-width="4"/>
<path d="M73.0717 351.035C73.0717 351.035 75.707 351.405 72.4134 352.803C69.1198 354.201 67.4161 354.671 65.7474 356.209C64.4125 357.439 64.7724 359.844 64.7664 359.815C63.3571 352.873 73.0717 351.035 73.0717 351.035Z" fill="black"/>
<path d="M64.7664 359.815C64.7603 359.786 64.7722 359.844 64.7664 359.815ZM64.7664 359.815C63.3571 352.873 73.0717 351.035 73.0717 351.035C73.0717 351.035 75.707 351.405 72.4134 352.803C69.1198 354.201 67.4161 354.671 65.7474 356.209C64.4125 357.439 64.7724 359.844 64.7664 359.815Z" stroke="black"/>
<path d="M29.4472 326.21C30.5077 329.955 33.6112 332.924 38.1071 334.567C42.6001 336.209 48.3372 336.45 54.2208 334.784C60.1044 333.118 64.8628 329.904 67.8279 326.15C70.7949 322.394 71.8807 318.239 70.8202 314.494C69.7597 310.749 66.6561 307.779 62.1602 306.137C57.6672 304.495 51.9301 304.253 46.0465 305.919C40.163 307.586 35.4046 310.8 32.4394 314.553C29.4724 318.309 28.3866 322.465 29.4472 326.21Z" fill="white" stroke="black" stroke-width="4"/>
<path d="M81.5227 243.659C84.7451 237.858 81.1884 230.463 74.5939 229.724V229.724C71.2275 229.347 67.9159 230.896 66.1081 233.76C47.9972 262.46 42.6419 283.033 39.2399 316.009C38.6817 321.419 42.6292 326.24 48.0344 326.846V326.846C53.5543 327.464 58.509 323.47 59.1538 317.953C62.2861 291.154 66.4397 270.811 81.5227 243.659Z" fill="black"/>
<path d="M274.638 354.033C268.569 344.255 277.7 327.05 290.123 325.856C305.428 321.313 300.112 315.2 311.383 325.928C316.948 327.675 339.646 341.403 334.166 353.517C328.686 365.632 324.009 365.527 322.832 364.109C322.599 381.686 306.638 368.271 305.455 366.515C299.857 384.35 287.662 377.329 284.617 369.843C282.18 363.853 282.78 358.126 284.162 355.486C282.365 358.815 279.659 362.122 274.638 354.033Z" fill="white"/>
<path d="M285.181 353.501C283.395 356.937 280.707 363.812 274.638 354.033C268.569 344.255 277.7 327.05 290.123 325.856C305.428 321.313 300.112 315.2 311.383 325.928C316.948 327.675 339.646 341.403 334.166 353.517C328.686 365.632 324.009 365.527 322.832 364.109M284.162 355.486C282.78 358.126 282.18 363.853 284.617 369.843C287.662 377.329 299.857 384.35 305.455 366.515C306.638 368.271 322.599 381.686 322.832 364.109M322.8 354.666C323.522 358.653 322.832 364.109 322.832 364.109" stroke="black" stroke-width="4"/>
<path d="M280.975 350.312C280.975 350.312 278.33 350.607 281.583 352.098C284.836 353.588 286.525 354.106 288.15 355.691C289.45 356.958 289.022 359.351 289.029 359.323C290.633 352.424 280.975 350.312 280.975 350.312Z" fill="black"/>
<path d="M289.029 359.323C289.036 359.294 289.022 359.351 289.029 359.323ZM289.029 359.323C290.633 352.424 280.975 350.312 280.975 350.312C280.975 350.312 278.33 350.607 281.583 352.098C284.836 353.588 286.525 354.106 288.15 355.691C289.45 356.958 289.022 359.351 289.029 359.323Z" stroke="black"/>
<path d="M325.282 326.727C324.116 330.44 320.93 333.321 316.39 334.836C311.852 336.351 306.11 336.431 300.276 334.599C294.442 332.768 289.776 329.421 286.918 325.585C284.058 321.747 283.09 317.562 284.255 313.849C285.421 310.135 288.607 307.254 293.148 305.739C297.685 304.225 303.427 304.145 309.261 305.976C315.095 307.808 319.761 311.155 322.619 314.99C325.479 318.829 326.447 323.013 325.282 326.727Z" fill="white" stroke="black" stroke-width="4"/>
<path d="M275.554 242.74C272.497 236.851 276.26 229.559 282.873 229.007C286.249 228.724 289.516 230.366 291.242 233.28C308.536 262.479 313.309 283.195 315.78 316.254C316.186 321.677 312.104 326.385 306.684 326.838C301.149 327.301 296.309 323.168 295.82 317.635C293.444 290.758 289.866 270.306 275.554 242.74Z" fill="black"/>
<circle cx="180.5" cy="191.5" r="128.5" transform="rotate(-32.8873 180.5 191.5)" fill="white" stroke="black" stroke-width="4"/>
<path d="M98.5432 93.1053C92.9934 97.8364 84.3432 106.776 78.9142 113.469C74.2243 119.276 64.5085 136.331 61.4472 144.023C49.7139 173.808 49.8804 207.16 61.8892 237.017C65.8686 246.849 74.3494 261.359 81.1333 269.949C104.589 299.504 140.839 318.665 175.814 319.879C178.615 320.026 180.867 319.958 180.792 319.843C180.718 319.728 177.615 319.367 173.921 318.981C153.678 317.218 131.431 309.568 115.049 298.942C105.181 292.429 104.069 291.598 103.767 290.243C103.663 289.575 102.985 289.034 102.262 288.93C101.043 288.821 95.0547 284.124 95.2568 283.422C95.4216 282.663 98.8295 281.846 98.8175 282.589C98.8427 283.388 99.7843 282.943 99.9698 282.088C100.151 281.481 96.7714 280.566 96.0198 281.052C94.7684 281.779 92.1529 280.777 90.4085 278.967C88.2343 276.619 88.3911 276.355 92.7944 275.303C97.4084 274.196 96.2428 273.154 90.8766 273.605C86.2168 274.006 84.5475 273.454 84.0878 271.221C83.8931 270.286 86.2184 269.19 93.1949 267.046C96.396 266.037 93.7724 265.53 88.7079 266.193C85.8039 266.52 83.3583 266.796 83.3211 266.739C83.2467 266.623 83.0893 265.746 82.973 264.679C82.7119 263.134 83.005 262.699 84.4052 262.202C86.6687 261.391 91.3817 260.057 92.9886 259.753C93.7156 259.609 94.0831 259.29 93.8226 258.887C93.5993 258.542 90.9678 258.53 88.0637 258.857C83.1726 259.408 82.6975 259.307 82.5108 257.877C82.303 255.4 83.1702 254.839 89.0109 253.348C92.018 252.546 94.4922 251.681 94.554 251.396C94.6982 250.731 94.6032 250.711 88.3365 251.417C83.4455 251.968 82.7803 251.827 82.668 250.512C82.585 249.75 82.6382 248.818 82.8529 248.516C83.0137 248.004 91.8117 245.253 94.757 244.736C95.4262 244.63 95.8515 244.273 95.6655 243.985C95.4422 243.64 92.695 243.702 89.5803 244.084C86.4655 244.466 83.7183 244.529 83.5695 244.299C83.4206 244.068 83.4738 243.136 83.7377 242.149C84.1624 240.651 84.5671 240.389 90.6763 238.805C94.2576 237.877 97.2109 236.865 97.2727 236.58C97.3963 236.011 97.9499 235.979 91.3403 236.662C85.9907 237.265 84.5115 236.753 85.539 234.538C85.9723 233.686 87.6822 232.907 91.9533 231.777C95.171 230.921 98.2732 230.139 98.7523 229.993C99.2108 229.941 99.5205 229.659 99.3345 229.371C99.1856 229.141 96.4384 229.204 93.2493 229.47C87.4411 230.125 86.5321 229.733 87.638 227.386C88.0919 226.44 89.839 225.718 94.9899 224.428C98.7241 223.482 101.83 222.453 101.913 222.073C101.937 221.731 101.578 221.555 101.099 221.702C98.6862 222.282 90.4984 222.68 89.99 222.274C89.6511 222.004 89.7788 221.187 90.1915 220.43C90.8601 219.182 95.6927 217.526 104.727 215.52C107.56 214.83 103.788 214.576 98.4799 214.989C95.6915 215.242 93.1549 215.25 92.9689 214.962C92.725 214.712 92.8526 213.895 93.2075 213.175C93.6243 212.172 95.4086 211.507 101.192 210.053C105.252 208.978 108.453 207.969 108.304 207.739C108.118 207.451 105.16 207.569 101.76 207.89C96.068 208.47 95.4978 208.349 96.0341 207.022C96.3518 206.246 96.8802 205.414 97.2849 205.153C98.4991 204.368 109.474 201.433 110.424 201.635C111.528 201.819 112.374 201.353 111.965 200.72C111.816 200.49 109.032 200.495 105.822 200.857C102.67 201.181 99.807 201.318 99.4847 201.2C99.183 200.987 99.2901 200.265 99.7234 199.414C100.371 198.26 101.602 197.628 105.799 196.383C108.711 195.561 112.024 194.725 113.189 194.624C114.411 194.487 115.58 194.139 115.873 193.704C116.146 193.365 113.609 193.373 110.172 193.637C102.476 194.288 102.096 194.207 103.388 192.148C104.288 190.75 105.498 190.212 112.008 188.614C116.106 187.597 119.612 186.553 119.616 186.306C119.678 186.021 117.369 186.127 114.486 186.359C111.581 186.687 108.45 186.916 107.574 186.829C105.955 186.734 105.918 186.676 106.722 185.258C107.449 183.973 108.659 183.435 113.64 182.009C116.937 181.02 120.592 180.207 121.778 180.012C122.98 179.969 123.711 179.578 123.488 179.233C123.302 178.945 120.823 178.915 117.977 179.205C115.073 179.532 111.999 179.724 111.123 179.638C109.504 179.543 109.467 179.485 110.329 178.03C111.056 176.744 112.381 176.131 118.912 174.438C123.125 173.346 126.653 172.208 126.714 171.923C126.813 171.696 124.066 171.758 120.704 172.137C113.826 172.912 113.065 172.751 113.63 170.835C114.01 169.774 115.22 169.236 120.776 167.684C124.473 166.681 128.112 165.715 128.839 165.571C129.508 165.465 129.933 165.108 129.747 164.821C129.561 164.533 126.967 164.578 124.042 165.001C117.718 165.744 116.329 165.499 116.741 163.6C116.989 162.461 117.662 162.108 121.532 160.992C125.403 159.877 131.107 158.555 133.02 158.216C133.383 158.144 133.482 157.917 133.296 157.629C133.11 157.342 130.916 157.373 128.471 157.648C126.005 158.019 122.894 158.153 121.58 158.023C119.106 157.747 118.402 156.406 120.137 155.284C121.409 154.462 131.083 151.797 133.318 151.576C134.272 151.53 135.271 151.047 135.47 150.593C135.668 150.138 133.61 150 130.553 150.344C121.936 151.346 121.44 151.34 121.757 149.421C122.05 147.845 122.223 147.733 126.362 146.525C128.737 145.887 132.339 144.864 134.388 144.355C139.729 143.105 138.386 142.423 131.966 143.147C124.688 143.936 123.052 143.688 123.422 141.979C123.67 140.84 124.669 140.357 130.055 138.67C133.62 137.589 137.106 136.64 137.871 136.554C138.788 136.451 139.135 136.226 138.911 135.881C138.688 135.536 135.846 135.578 132.636 135.94C126.369 136.646 124.163 136.277 124.575 134.379C124.802 133.334 129.56 131.563 138.908 129.028C141.493 128.336 138.659 127.883 135.16 128.432C128.927 129.443 124.213 128.492 125.22 126.372C125.475 125.88 136.025 122.16 138.99 121.548C139.928 121.35 140.122 121.143 139.63 120.89C139.176 120.694 136.313 120.831 133.256 121.176C127.601 121.813 125.072 121.326 125.026 119.479C125.001 118.679 126.174 118.084 130.585 116.537C133.617 115.393 136.76 114.422 137.487 114.278C138.214 114.134 138.581 113.815 138.358 113.47C138.135 113.124 135.388 113.187 132.273 113.569C126.539 114.338 124.259 113.855 124.196 111.855C124.191 110.96 125 110.437 129.337 108.775C132.121 107.628 135.017 106.653 135.706 106.452C136.376 106.346 136.801 105.989 136.578 105.644C136.354 105.299 134.694 105.393 132.876 105.752C129.489 106.474 123.139 106.417 122.655 105.669C122.507 105.439 122.403 104.772 122.432 104.182C122.427 103.287 123.257 102.669 127.061 100.944C129.634 99.851 132.166 98.9483 132.794 99.0319C133.517 99.1356 133.864 98.9113 133.893 98.3216C133.843 97.8641 131.364 97.8347 128.286 98.2741C125.172 98.6559 122.098 98.8479 121.454 98.6118C119.594 98.0187 119.139 95.5387 120.679 94.6242C122.471 93.4652 127.539 91.4124 129.088 91.1453C129.815 91.0016 130.183 90.6824 129.96 90.3371C129.736 89.9918 127.047 90.017 123.969 90.4564C120.912 90.8008 118.012 90.8806 117.504 90.4748C116.975 90.164 115.917 88.4002 115.048 86.6767L113.46 83.4599L119.849 79.8998C134.225 71.828 152.28 66.2744 169.816 64.4837C182.977 63.155 193.363 63.6209 206.349 66.0782C223.537 69.3278 234.152 73.3179 249.017 82.2316C253.719 85.0666 257.666 87.4928 257.815 87.723C257.964 87.9532 257.671 88.3876 257.15 88.724C256.63 89.0605 256.452 89.4201 256.717 89.5755C265.974 95.0153 267.024 96.1318 264.343 97.9464C263.418 98.5446 259.559 97.7755 254.477 96.002C252.068 95.1929 248.375 95.9486 249.157 97.1571C249.38 97.5024 249.876 97.5083 250.148 97.1689C250.714 96.3952 251.908 96.8471 255.892 99.331C257.119 100.088 259.065 101.196 260.123 101.818C261.768 102.713 261.991 103.058 261.616 103.872C260.786 105.633 260.08 105.681 254.039 104.201C250.734 103.4 247.805 102.928 247.4 103.19C246.533 103.75 246.963 104.288 248.653 104.746C249.45 104.965 252.099 106.272 254.574 107.691C258.24 109.809 259.029 110.523 258.691 111.395C258.225 113.083 256.205 113.002 249.767 111.289C243.805 109.676 242.31 110.153 246.872 112.263C251.756 114.491 256.703 117.577 256.728 118.376C256.774 120.223 254.465 120.329 248.71 118.909C245.367 118.051 242.57 117.656 242.488 118.036C242.405 118.416 243.046 118.899 243.843 119.118C246.727 120.028 254.794 124.768 254.989 125.704C255.415 127.631 253.449 127.76 247.656 126.283C240.971 124.566 239 124.943 243.736 126.941C249.397 129.482 254.575 132.418 254.732 133.296C255.142 135.071 253.329 135.183 246.908 133.622C243.375 132.723 240.409 132.193 240.31 132.42C240.306 132.668 243.463 134.38 247.323 136.292C254.021 139.55 255.732 141.055 254.055 142.139C253.651 142.401 250.474 141.925 246.941 141.027C240.863 139.489 238.285 139.687 242.434 141.411C243.591 141.806 246.942 143.311 249.971 144.699C254.988 147.004 255.364 147.332 255.055 148.756C254.745 150.18 254.155 150.154 247.945 148.539C241.259 146.822 238.45 147.17 243.607 149.058C252.954 152.481 258.029 155.892 255.889 157.275C255.543 157.5 252.518 157.007 249.176 156.149C245.738 155.27 242.92 154.97 242.838 155.35C242.698 155.767 243.016 156.133 243.512 156.139C245.61 156.087 257.375 162.109 257.793 163.389C258.029 164.134 258.017 164.877 257.786 165.026C257.497 165.213 254.398 164.605 250.828 163.649C244.333 161.973 241.734 162.266 246.796 164.134C248.218 164.684 251.627 166.152 254.296 167.364C258.176 169.181 259.251 169.955 259.553 171.31C259.872 172.817 259.566 172.852 253.03 171.366C249.249 170.464 246.072 169.989 246.01 170.274C245.986 170.616 247.007 171.18 248.354 171.615C252.981 173.193 260.531 176.88 261.275 178.031C262.801 180.39 261.52 180.565 255.12 178.91C251.455 177.933 248.468 177.498 248.386 177.878C248.303 178.258 249.134 178.781 250.254 179.118C253.824 180.074 263.001 184.504 263.746 185.655C265.16 187.842 263.726 188.034 257.363 186.436C253.736 185.517 250.769 184.987 250.765 185.235C250.666 185.462 253.976 187.157 258.067 188.919C265.699 192.227 266.265 192.595 266.291 194.537C266.296 195.432 264.866 195.377 259.966 194.138C256.47 193.297 253.578 192.882 253.459 193.205C253.434 193.547 254.455 194.111 255.802 194.546C258.818 195.533 267.979 199.811 268.351 200.386C268.538 200.674 268.621 201.436 268.629 202.084C268.613 203.073 267.432 203.021 262.304 201.685C258.829 200.749 255.879 200.372 255.834 200.809C255.752 201.189 256.582 201.712 257.702 202.049C262.259 203.265 270.582 207.513 270.942 208.831C271.083 209.556 271.071 210.298 270.782 210.485C270.551 210.635 267.584 210.104 264.299 209.209C260.994 208.408 258.217 207.918 258.156 208.203C258.131 208.546 259.776 209.441 261.879 210.284C269.156 213.169 272.404 215.149 272.665 216.694C272.852 218.124 272.356 218.118 266.77 216.833C263.464 216.033 260.556 215.465 260.44 215.54C259.862 215.914 261.292 217.111 262.887 217.549C263.911 217.865 266.887 219.043 269.498 220.292C273.511 222.186 274.321 222.805 274.544 224.292C274.764 226.027 274.574 225.987 268.649 224.432C265.269 223.516 262.435 223.064 262.295 223.481C262.25 223.918 262.833 224.439 263.688 224.62C264.522 224.897 267.477 226.169 270.221 227.496C274.159 229.275 275.345 230.222 275.837 231.617C276.4 233.375 276.305 233.355 270.132 231.797C266.637 230.956 263.745 230.541 263.72 230.883C263.638 231.263 264.163 231.821 264.844 232.115C265.584 232.371 268.613 233.759 271.51 235.069C276.489 237.317 276.865 237.645 276.858 239.282C276.792 240.956 276.602 240.916 271.438 239.522C268.496 238.65 265.757 238.217 265.352 238.479C264.311 239.152 264.948 239.883 266.869 240.191C267.782 240.335 270.451 241.547 272.889 242.909C276.877 245.145 277.291 245.531 277.06 246.822C276.734 248.094 276.181 248.125 271.454 246.775C266.479 245.421 264.612 245.323 265.393 246.532C265.542 246.762 268.001 248.028 270.786 249.165C276.145 251.494 277.48 252.671 276.858 254.624C276.556 255.554 275.47 255.522 271.218 254.272C268.314 253.457 265.69 252.95 265.459 253.1C264.534 253.698 265.662 254.682 268.298 255.589C269.72 256.139 272.104 257.29 273.559 258.145C276.261 259.662 276.336 259.777 275.89 261.371C275.445 262.964 275.197 262.961 270.09 261.53C264.016 259.745 262.377 260.887 267.736 263.215C274.1 265.956 274.72 266.534 274.246 268.718L273.871 270.674L268.768 268.995C263.987 267.435 261.699 267.446 262.666 268.942C262.889 269.287 263.72 269.811 264.48 269.973C265.278 270.191 267.398 271.187 269.212 272.218C272.311 273.968 272.518 274.161 271.981 275.487C271.202 277.705 270.59 277.773 265.678 276.135C262.529 275.07 260.835 274.86 260.253 275.481C259.65 276.197 259.328 276.079 259.17 275.201C258.939 274.209 258.881 274.246 258.46 275.498C257.94 276.976 258.804 277.805 260.018 277.02C260.943 276.422 263.274 277.363 266.572 279.801C268.948 281.447 269.06 281.62 268.499 283.288C268.095 284.692 267.785 284.974 267.008 284.66C266.516 284.407 266.087 283.869 266.053 283.564C266.041 283.164 265.793 283.161 265.367 283.517C265.037 283.894 264.525 283.736 264.343 283.201C264.161 282.665 263.896 282.51 263.814 282.89C263.769 283.327 262.339 283.272 260.686 282.872C255.728 281.671 254.927 281.699 254.746 283.448C254.61 284.76 254.648 284.818 255.271 284.007C255.837 283.233 257.014 283.532 260.076 285.225C263.932 287.384 264.139 287.576 263.639 288.96C262.047 293.091 278.368 275.6 285.725 265.294C296.144 250.722 305.63 229.001 308.753 212.782C313.569 187.388 310.681 163.141 299.947 138.172C295.939 128.93 285.594 112.932 277.992 104.219C274.735 100.449 271.734 97.3298 271.221 97.1714C270.746 97.0706 269.994 96.4145 269.548 95.7239C269.064 94.9758 265.563 92.0979 261.757 89.2546C237.055 70.7064 209.412 61.8125 178.867 62.6304C162.726 63.029 140.842 68.3659 126.118 75.5199C121.215 77.9554 102.082 90.0825 98.5432 93.1053ZM108.803 89.5721C113.452 91.0549 117.679 93.7891 118.354 95.7197C118.9 97.3252 118.652 97.3222 113.719 95.7789C109.24 94.4314 107.05 94.215 107.683 95.1934C107.757 95.3085 110.654 96.6182 114.12 98.0489C119.178 100.165 120.48 101.037 120.972 102.432C121.262 103.387 121.552 104.343 121.51 104.533C121.469 104.722 118.978 104.293 116.053 103.573C110.107 102.113 109.504 102.829 114.983 104.836C120.388 106.727 121.69 107.599 122.641 110.085C123.175 111.291 123.328 112.416 123.039 112.603C122.692 112.827 122.349 112.804 122.163 112.516C121.585 111.748 113.094 109.648 112.95 110.313C112.888 110.598 114.512 111.588 116.615 112.431C122.755 114.827 123.47 115.425 123.947 117.81L124.274 119.965L119.147 118.629C113.317 117.094 111.933 117.744 116.842 119.629C118.586 120.297 120.933 121.391 122.181 122.053C124.164 123.219 124.35 123.507 124.302 125.333C124.299 127.865 123.857 128.069 121.436 126.86C119.014 125.651 113.577 124.597 114.135 125.46C114.358 125.806 116.325 126.819 118.503 127.777C122.784 129.579 124.115 131.004 123.939 133.648C123.778 135.302 123.721 135.339 121.902 134.556C118.473 133.183 113.684 132.117 113.503 132.724C113.478 133.067 115.197 134.077 117.47 135.056C121.957 137.051 123.288 138.475 122.658 140.923C122.175 142.459 121.927 142.456 117.564 141.034C111.399 138.981 109.879 139.801 115.487 142.132C120.127 144.11 121.536 145.402 121.219 147.321C120.857 149.677 119.973 150.085 117.589 148.934C115.337 147.86 110.837 146.608 110.375 146.907C109.681 147.356 110.962 148.322 114.313 149.828C118.574 151.725 119.71 153.356 118.584 155.799C117.792 157.617 117.697 157.597 115.862 156.661C113.102 155.182 107.937 153.788 107.83 154.51C107.768 154.795 109.371 155.88 111.396 156.856C115.541 158.827 116.421 159.809 116.001 162.202C115.701 164.273 114.544 165.021 113.226 163.997C111.701 162.779 105.396 161.144 105.231 161.903C105.111 162.225 106.413 163.097 108.041 163.84C112.624 165.855 113.579 166.951 112.808 169.817C112.42 171.373 111.97 172.072 111.499 171.724C110.313 170.777 102.438 168.361 101.859 168.735C101.05 169.258 101.352 169.471 105.195 171.23C109.265 173.087 110.013 173.99 109.531 176.669C109.049 179.347 108.723 179.476 105.963 177.997C103.297 176.537 98.3184 175.431 98.1536 176.191C98.0918 176.476 99.6208 177.446 101.551 178.401C105.716 180.278 106.464 181.182 105.982 183.86C105.541 186.348 104.885 186.855 103.587 185.735C102.194 184.595 94.7694 182.623 94.6252 183.287C94.5428 183.667 96.0718 184.637 98.0016 185.593C102.167 187.47 102.915 188.373 102.433 191.051C101.951 193.73 101.625 193.859 98.8645 192.38C96.1619 190.863 91.2204 189.814 91.035 190.669C90.9731 190.953 91.9154 191.65 93.2046 192.122C97.5061 193.829 98.6677 195.118 98.5658 197.877C98.5252 199.209 98.2574 200.443 98.0261 200.593C97.7948 200.743 96.4106 200.25 94.9932 199.453C92.0427 197.933 87.6714 197.006 87.4859 197.86C87.4241 198.145 88.3664 198.841 89.6556 199.314C94.4116 201.216 96.2018 203.731 94.9888 206.801C94.5103 208.089 94.2046 208.124 91.4442 206.644C88.3987 205.104 82.8498 203.877 83.5568 204.971C83.8173 205.374 85.0075 206.073 86.2388 206.583C90.0858 208.094 91.4374 209.424 91.6825 211.958C92.0146 215.008 91.1101 215.511 88.2175 213.954C85.5521 212.495 79.3008 211.069 79.9706 212.105C80.1939 212.45 82.008 213.48 83.9006 214.379C87.4791 215.982 88.9051 217.426 88.3315 218.695C88.1335 219.15 88.2411 219.57 88.6006 219.745C88.9229 219.863 88.9687 220.568 88.7873 221.175C88.4656 222.199 87.7798 222.153 85.032 221.073C80.1809 219.15 77.8258 218.551 77.132 219C76.7851 219.224 78.0291 220.134 79.9216 221.032C84.1035 223.061 85.8352 224.471 85.3813 225.418C85.1832 225.872 85.4025 226.465 85.8364 226.756C86.2704 227.046 86.3906 227.866 86.1886 228.568C85.8669 229.592 85.3133 229.624 82.9084 228.567C78.6481 226.67 73.9957 225.435 73.8515 226.099C73.8269 226.442 75.6576 227.625 77.9469 228.756C81.9759 230.802 84.113 233.093 84.1308 235.53C84.1812 237.129 83.2847 237.138 80.1442 235.578C76.8136 233.977 71.1325 232.673 71.8023 233.708C72.0256 234.054 73.7819 235.121 75.6745 236.02C82.0134 239.102 85.5863 245.769 79.5989 243.357C70.5992 239.709 66.1541 239.809 74.0672 243.424C77.5879 245.065 79.0013 246.11 79.4026 247.238C79.7295 248.25 80.3123 248.771 80.8865 248.645C81.5185 248.481 81.6839 248.864 81.4739 250.06C81.1442 251.579 80.9913 251.597 78.3013 250.48C76.7105 249.795 73.7314 248.865 71.6035 248.363L67.8808 247.425L65.0973 241.472C57.7849 225.471 53.7055 206.482 53.7622 188.818C53.9593 155.394 68.6693 121.97 93.275 99.2864C104.486 88.8547 105.122 88.4434 108.803 89.5721ZM113.407 85.5341C113.718 86.3944 114.326 87.7151 114.809 88.4632C115.665 89.7868 115.512 89.804 112.228 88.9084C110.348 88.4103 108.699 87.7625 108.455 87.5122C108.306 87.282 109.293 86.399 110.565 85.5765C112.762 84.1559 113.01 84.1588 113.407 85.5341ZM268.614 96.8169C268.801 97.1046 268.47 97.4814 267.896 97.6079C267.285 97.6767 266.731 97.7083 266.657 97.5932C266.582 97.4781 266.913 97.1013 267.375 96.8022C267.838 96.5031 268.391 96.4716 268.614 96.8169ZM269.653 99.8178C272.557 99.4906 275.599 102.42 274.836 104.79C274.374 106.232 274.374 106.232 275.382 105.254C276.389 104.276 276.691 104.489 280.825 109.487C311.721 147.125 318.37 195.954 298.621 240.225C295.275 247.857 291.779 254.116 291.213 253.748C290.647 253.379 280.382 254.876 279.457 255.474C277.953 256.446 278.353 254.147 279.86 252.928C282.97 250.509 284.374 249.764 288.281 248.707C291.499 247.85 292.243 247.859 292.284 248.811C292.306 249.858 292.19 249.933 291.744 249.243C291.446 248.782 291.124 248.664 291.099 249.007C290.773 250.278 292.508 250.299 293.293 248.975C294.118 247.462 293.713 246.582 292.097 246.239C290.862 245.977 283.216 247.086 280.399 247.928C278.75 248.422 277.874 247.194 279.187 246.181C279.65 245.882 280.273 245.071 280.702 244.467C281.796 242.862 288.413 240.542 290.599 241.006C292.88 241.49 293.747 240.929 292.891 239.605C292.11 238.397 286.595 238.617 281.824 239.988C279.754 240.591 278.763 240.58 278.527 239.835C278.308 239.242 278.489 238.635 278.968 238.488C279.41 238.284 280.013 237.568 280.194 236.961C280.718 235.235 290.346 231.866 290.686 233.278C290.934 234.423 292.107 233.828 292.032 232.571C292.04 232.076 291.304 231.572 290.391 231.428C288.66 231.16 282.468 231.982 279.746 232.844C278.788 233.137 277.895 232.898 277.486 232.265C277.002 231.517 277.142 231.1 277.774 230.936C278.349 230.81 278.795 230.358 278.803 229.863C278.765 228.663 281.462 227.001 285.022 226.168C286.65 225.768 288.186 225.101 288.364 224.742C288.562 224.287 288.901 224.558 289.095 225.493C289.53 226.926 290.674 226.92 290.64 225.473C290.656 223.341 285.549 223.052 279.82 224.717C278.209 225.269 276.702 225.346 276.441 224.943C276.181 224.54 276.226 224.103 276.552 223.973C276.841 223.787 277.08 223.142 277.035 222.437C276.926 220.875 278.545 219.828 283.411 218.477C285.844 217.802 287.352 217.725 287.476 218.297C287.584 218.717 287.98 218.95 288.327 218.726C289.426 218.016 287.83 216.436 285.851 216.165C284.062 215.934 276.833 217.181 275.619 217.966C274.636 218.602 274.053 216.939 274.597 215.118C275.261 212.975 276.959 211.796 280.883 210.89C282.51 210.491 284.047 209.824 284.245 209.369C284.443 208.915 284.707 209.07 284.848 209.795C285.151 211.15 286.539 211.395 286.522 210.101C286.53 209.606 285.91 209.027 285.207 208.829C283.67 208.354 276.928 208.959 275.772 209.707C275.367 209.968 274.334 210.146 273.496 210.117C271.971 210.042 271.897 209.927 272.483 207.916C273.076 205.411 274.91 204.062 278.949 203.082C280.519 202.72 281.903 202.07 282.022 201.748C282.105 201.368 282.291 201.656 282.452 202.286C282.792 203.698 284.18 203.943 284.163 202.649C284.137 200.707 277.75 200.593 272.649 202.341C270.559 203.039 269.716 202.116 270.024 199.55C270.345 197.383 270.713 197.064 275.925 195.489C278.569 194.759 280.098 194.587 280.164 195.196C280.47 196.304 281.433 195.764 281.395 194.564C281.403 194.069 280.667 193.565 279.717 193.364C277.738 193.093 270.798 194.153 269.468 195.013C268.948 195.349 268.245 195.15 267.91 194.632C267.055 193.309 267.615 190.498 269.003 189.601C270.795 188.442 277.536 186.694 277.524 187.437C277.557 187.742 277.896 188.012 278.297 187.998C279.594 187.975 278.635 185.984 277.284 185.797C275.437 185.604 268.555 186.626 267.572 187.262C266.242 188.121 264.874 186.639 265.191 184.721C265.512 182.554 267.556 181.151 271.596 180.171C273.856 179.608 274.376 179.271 274.004 178.696C273.557 178.005 268.286 178.476 264.969 179.559C263.053 180.146 262.362 179.205 262.824 176.621C263.302 174.191 263.244 174.228 267.535 173.003C269.394 172.454 271.274 171.811 271.736 171.511C273.471 170.39 269.963 170.291 265.618 171.306C261.904 172.156 261.066 172.127 260.701 171.057C260.445 170.407 260.638 169.057 261.034 168.148C261.686 166.748 262.207 166.411 265.177 165.552C269.047 164.436 270.162 163.879 269.716 163.188C269.381 162.67 262.924 163.336 261.825 164.046C260.112 165.073 259.033 164.546 258.722 162.544C258.341 160.179 260.389 158.528 265.156 157.404C268.774 156.533 268.716 156.571 268.121 155.65C267.712 155.017 265.361 155.313 259.562 156.614C257.744 156.974 257.517 156.876 257.297 155.141C256.92 152.529 257.964 151.608 262.888 150.22C268.865 148.559 268.236 147.333 261.813 148.304C258.888 148.726 256.443 149.001 256.331 148.829C256.22 148.656 256.293 147.629 256.33 146.544C256.498 144.395 256.729 144.246 265.523 141.742C266.424 141.486 266.87 141.035 266.609 140.632C266.274 140.114 260.698 140.619 257.021 141.527C255.815 141.817 255.741 141.702 255.769 139.97C255.751 137.534 256.986 136.654 262.12 135.211C264.458 134.515 266.436 133.644 266.424 133.244C266.357 132.634 260.38 133.153 257.199 134.067C256.146 134.34 255.939 134.148 255.827 132.833C255.64 130.261 256.664 129.435 261.682 128.067C267.007 126.665 267.333 126.535 266.849 125.787C266.477 125.212 259.029 125.866 257.873 126.613C256.832 127.286 256.497 126.768 256.855 124.66C257.214 122.551 258.523 121.786 264.211 120.312C267.255 119.567 268.916 119.473 269.077 120.103C269.201 120.675 269.582 120.756 269.932 120.284C271.509 118.285 269.634 117.54 264.78 118.148C262.066 118.516 259.579 118.981 259.29 119.168C258.365 119.766 258.058 118.659 258.566 116.78C259.032 115.092 259.242 115.037 264.719 113.617C273.047 111.66 272.315 109.767 263.69 111.264C260.401 111.758 260.116 111.697 260.653 110.371C261.449 108.306 263.179 107.431 268.731 106.127C274.34 104.785 274.551 104.73 274.03 103.924C273.807 103.579 271.212 103.624 268.251 103.989C263.702 104.563 263.074 104.48 263.607 103.401C264.552 101.566 267.112 100.073 269.653 99.8178ZM73.6169 251.224C75.9641 252.317 78.3032 253.906 78.8241 254.712C79.3823 255.575 80.2502 256.156 80.7665 256.067C81.3985 255.903 81.5639 256.286 81.3539 257.483C81.0448 258.907 80.7391 258.941 76.7599 257.352C72.913 255.841 72.2724 255.357 70.7341 252.598C69.8078 250.912 69.1254 249.476 69.241 249.401C69.3567 249.327 71.3649 250.15 73.6169 251.224ZM78.7041 262.134C79.2623 262.997 80.0723 263.616 80.4937 263.507C80.9728 263.36 81.4978 263.919 81.7297 264.911C82.4499 267.547 80.0656 266.395 77.1511 262.649C74.8526 259.728 74.7615 259.461 76.1458 259.953C77.0176 260.287 78.146 261.271 78.7041 262.134ZM279.03 260.646C279.616 260.92 279.926 260.638 280.207 259.804C280.648 258.457 283.684 257.066 287.777 256.296L290.512 255.833L288.811 258.402C287.168 260.933 287.11 260.971 282.538 261.887C277.143 262.927 277.296 262.91 277.332 261.825C277.274 260.721 278.083 260.197 279.03 260.646ZM278.748 267.439C279.512 266.21 283.956 263.827 284.365 264.46C284.551 264.747 283.866 265.843 282.912 267.031C281.471 268.861 280.74 269.252 278.406 269.7C275.978 270.128 275.597 270.047 275.77 268.793C275.885 267.576 276.001 267.501 276.984 268.008C277.741 268.417 278.278 268.233 278.748 267.439ZM275.258 275.735C275.555 276.195 275.469 276.822 275.006 277.122C273.85 277.869 272.697 277.227 273.341 276.321C274.278 274.981 274.699 274.872 275.258 275.735Z" fill="black"/>
<path d="M111.925 118.239C112.111 118.526 112.475 118.455 112.652 118.095C112.887 117.698 112.933 117.261 112.821 117.088C112.746 116.973 112.441 117.007 112.094 117.232C111.805 117.419 111.702 117.893 111.925 118.239Z" fill="black"/>
<path d="M110.037 140.678C110.223 140.966 110.586 140.894 110.764 140.535C110.999 140.138 111.044 139.7 110.933 139.528C110.858 139.413 110.552 139.447 110.206 139.671C109.916 139.858 109.813 140.333 110.037 140.678Z" fill="black"/>
<path d="M93.4284 170.024C93.3832 170.462 91.2572 173.387 88.5736 176.591C85.9273 179.853 83.8797 182.646 84.0285 182.876C84.1774 183.106 84.834 182.6 85.573 181.714C92.4388 173.439 94.3295 170.911 94.4239 169.789C94.5516 168.972 94.4233 168.647 94.0186 168.908C93.6717 169.133 93.4158 169.625 93.4284 170.024Z" fill="black"/>
<path d="M88.6227 191.249C88.8087 191.537 89.1722 191.465 89.3497 191.105C89.585 190.709 89.6302 190.271 89.5185 190.099C89.4441 189.984 89.1384 190.018 88.7915 190.242C88.5024 190.429 88.3994 190.904 88.6227 191.249Z" fill="black"/>
<path d="M74.6785 219.77C74.7283 220.228 74.9968 220.136 75.3477 219.664C76.1279 218.588 76.0409 218.073 75.2314 218.597C74.8845 218.821 74.6287 219.313 74.6785 219.77Z" fill="black"/>
<path d="M71.8279 227.408C72.0139 227.696 72.3774 227.624 72.5549 227.264C72.7902 226.867 72.8354 226.43 72.7237 226.257C72.6493 226.142 72.3436 226.177 71.9967 226.401C71.7076 226.588 71.6046 227.063 71.8279 227.408Z" fill="black"/>
<path d="M69.481 234.556C69.4936 234.956 69.7953 235.169 70.0844 234.982C70.4313 234.758 70.5343 234.283 70.3482 233.996C70.125 233.65 69.8605 233.495 69.7449 233.57C69.5714 233.682 69.4312 234.099 69.481 234.556Z" fill="black"/>
<path d="M67.4604 241.576C67.473 241.976 67.7169 242.226 68.0638 242.002C68.3529 241.815 68.6293 241.228 68.6167 240.828C68.5669 240.371 68.3603 240.178 68.0133 240.402C67.7243 240.589 67.4106 241.118 67.4604 241.576Z" fill="black"/>
<path d="M271.246 112.172C270.969 112.759 271.135 113.141 271.631 113.147C272.031 113.133 272.461 112.529 272.568 111.807C272.782 110.363 271.997 110.544 271.246 112.172Z" fill="black"/>
<path d="M267.883 126.751C267.863 127.988 268.986 128.078 269.254 126.844C269.399 126.179 269.175 125.834 268.68 125.828C268.221 125.879 267.833 126.294 267.883 126.751Z" fill="black"/>
<path d="M267.147 134.49C267.16 134.89 267.577 135.028 268.04 134.729C268.56 134.392 268.779 133.843 268.593 133.555C268.369 133.21 267.989 133.129 267.7 133.316C267.353 133.541 267.097 134.032 267.147 134.49Z" fill="black"/>
<path d="M267.609 141.291C267.49 141.613 267.614 142.186 267.837 142.531C268.061 142.876 268.312 142.632 268.457 141.967C268.58 141.398 268.456 140.825 268.229 140.727C267.944 140.667 267.634 140.949 267.609 141.291Z" fill="black"/>
<path d="M268.184 149.407C268.37 149.695 268.733 149.623 268.911 149.263C269.146 148.866 269.191 148.429 269.08 148.257C269.005 148.141 268.7 148.176 268.353 148.4C268.064 148.587 267.961 149.062 268.184 149.407Z" fill="black"/>
<path d="M269.266 156.787C269.279 157.187 269.58 157.4 269.869 157.213C270.216 156.988 270.319 156.514 270.133 156.226C269.91 155.881 269.646 155.725 269.53 155.8C269.356 155.912 269.216 156.329 269.266 156.787Z" fill="black"/>
<path d="M297.288 141.034C297.12 144.325 298.398 153.782 300.854 166.965C305.259 190.64 305.567 204.559 301.9 214.357C300.865 217.066 299.854 219.434 299.565 219.621C299.276 219.808 299.64 220.878 300.347 221.971C301.054 223.065 301.765 223.911 301.938 223.799C302.921 223.163 304.905 217.229 305.923 212.082C308.185 200.745 307.756 194.248 303.7 173.775C299.541 152.634 299.139 150.364 298.74 144.421C298.282 138.514 297.492 136.658 297.288 141.034Z" fill="black"/>
<path d="M270.918 164.287C271.043 164.86 271.419 165.188 271.708 165.001C272.055 164.777 272.025 164.224 271.728 163.764C271.43 163.303 271.054 162.975 270.938 163.05C270.823 163.125 270.852 163.677 270.918 164.287Z" fill="black"/>
<path d="M273.154 172.309C273.34 172.596 273.703 172.525 273.881 172.165C274.116 171.768 274.161 171.331 274.049 171.158C273.975 171.043 273.669 171.077 273.322 171.302C273.033 171.489 272.93 171.963 273.154 172.309Z" fill="black"/>
<path d="M275.326 179.473C275.624 179.933 276.062 179.976 276.239 179.617C276.437 179.162 276.293 178.685 275.933 178.509C274.892 178.04 274.656 178.437 275.326 179.473Z" fill="black"/>
<path d="M172.908 67.8706C173.094 68.1583 176.944 68.2801 181.464 68.2957C191.247 68.3356 204.67 70.8362 222.247 75.9559C229.061 77.9974 235.027 79.3625 235.547 79.0261C236.356 78.5027 236.245 78.33 234.46 77.852C233.377 77.5727 226.163 75.5455 218.437 73.3599C198.997 67.8945 189.924 66.4163 178.208 66.8103C173.399 66.9817 172.309 67.1972 172.908 67.8706Z" fill="black"/>
<path d="M140.725 121.569C140.738 121.969 141.04 122.182 141.329 121.995C141.676 121.771 141.779 121.296 141.593 121.008C141.369 120.663 141.105 120.507 140.989 120.582C140.816 120.694 140.676 121.111 140.725 121.569Z" fill="black"/>
<path d="M139.907 136.788C139.92 137.188 140.222 137.4 140.511 137.214C140.858 136.989 140.961 136.515 140.775 136.227C140.551 135.882 140.287 135.726 140.171 135.801C139.998 135.913 139.858 136.33 139.907 136.788Z" fill="black"/>
<path d="M254.561 89.6641C254.553 90.1589 254.755 90.5991 255.04 90.6596C255.705 90.8008 256.378 89.3049 255.932 88.6144C255.485 87.9238 254.502 88.5593 254.561 89.6641Z" fill="black"/>
<path d="M126.791 183.707C125.182 188.828 123.914 195.361 124.484 195.482C124.616 195.559 125.305 193.074 126.022 189.999C126.681 186.961 127.757 182.919 128.397 181.118C128.999 179.26 129.229 177.968 128.94 178.155C128.593 178.379 127.657 180.862 126.791 183.707Z" fill="black"/>
<path d="M245.459 104.118C245.757 104.579 246.194 104.622 246.372 104.262C246.607 103.865 246.578 103.313 246.355 102.968C246.169 102.68 245.789 102.599 245.442 102.824C245.153 103.011 245.124 103.6 245.459 104.118Z" fill="black"/>
<path d="M242.348 111.353C242.36 111.753 242.662 111.966 242.951 111.779C243.298 111.555 243.401 111.08 243.215 110.792C242.992 110.447 242.727 110.291 242.612 110.366C242.438 110.478 242.298 110.896 242.348 111.353Z" fill="black"/>
<path d="M239.005 125.837C239.191 126.125 239.555 126.053 239.732 125.694C239.967 125.297 240.012 124.86 239.901 124.687C239.826 124.572 239.521 124.606 239.174 124.831C238.885 125.018 238.782 125.492 239.005 125.837Z" fill="black"/>
<path d="M239.009 140.933C239.418 141.566 239.703 141.626 239.579 141.054C239.492 140.539 239.099 140.058 238.814 139.998C238.492 139.88 238.542 140.337 239.009 140.933Z" fill="black"/>
<path d="M98.0914 237.846C98.6077 237.757 99.0909 237.363 99.1527 237.078C99.2723 236.756 98.8138 236.808 98.215 237.277C97.579 237.688 97.5172 237.973 98.0914 237.846Z" fill="black"/>
<path d="M241.248 155.807C241.657 156.44 241.942 156.501 241.818 155.928C241.731 155.413 241.338 154.932 241.053 154.872C240.731 154.754 240.781 155.211 241.248 155.807Z" fill="black"/>
<path d="M95.2277 252.184C94.9306 252.866 95.0216 253.134 95.4264 252.872C95.7733 252.648 96.1076 252.023 96.095 251.623C96.111 250.634 95.8797 250.783 95.2277 252.184Z" fill="black"/>
<path d="M94.8187 259.794C94.8313 260.194 95.0751 260.444 95.4221 260.22C95.7111 260.033 95.9876 259.446 95.975 259.046C95.9252 258.588 95.7185 258.396 95.3716 258.62C95.0825 258.807 94.7689 259.336 94.8187 259.794Z" fill="black"/>
<path d="M105.979 271.347C106.984 272.901 108.129 274.038 108.418 273.851C108.765 273.627 108.14 272.153 107.135 270.6C106.094 268.988 105.044 267.872 104.697 268.096C104.408 268.283 104.937 269.736 105.979 271.347Z" fill="black"/>
<path d="M96.4793 275.042C96.4919 275.442 96.7358 275.692 97.0827 275.468C97.3718 275.281 97.6483 274.694 97.6357 274.294C97.5858 273.837 97.3792 273.644 97.0323 273.868C96.7432 274.055 96.4295 274.584 96.4793 275.042Z" fill="black"/>
<path d="M106.987 286.854C107.769 288.063 113.128 290.392 113.88 289.906C114.689 289.382 114.445 289.132 110.664 287.088C107.052 285.18 105.871 285.128 106.987 286.854Z" fill="black"/>
<path d="M251.885 193.814C252.294 194.447 252.58 194.508 252.455 193.935C252.368 193.42 251.976 192.939 251.69 192.879C251.368 192.761 251.418 193.218 251.885 193.814Z" fill="black"/>
<path d="M258.961 216.17C259.371 216.803 259.656 216.863 259.531 216.291C259.444 215.776 259.052 215.295 258.767 215.235C258.444 215.117 258.494 215.574 258.961 216.17Z" fill="black"/>
<path d="M262.522 231.821C262.932 232.454 263.217 232.515 263.093 231.942C263.006 231.427 262.613 230.946 262.328 230.886C262.006 230.768 262.055 231.225 262.522 231.821Z" fill="black"/>
<path d="M252.601 242.725C252.61 244.514 252.871 246.059 253.156 246.12C254.297 246.362 254.94 244.314 254.645 241.322C254.4 238.787 254.197 238.347 253.446 238.833C252.983 239.132 252.612 240.841 252.601 242.725Z" fill="black"/>
<path d="M263.295 239.482C263.593 239.943 264.031 239.986 264.208 239.627C264.443 239.23 264.414 238.677 264.191 238.332C264.005 238.044 263.625 237.964 263.278 238.188C262.989 238.375 262.96 238.965 263.295 239.482Z" fill="black"/>
<path d="M263.865 246.704C264.795 248.142 265.216 248.033 264.84 246.563C264.773 245.953 264.323 245.51 263.922 245.524C263.426 245.518 263.455 246.071 263.865 246.704Z" fill="black"/>
<path d="M252.548 260.142C252.405 261.949 252.653 263.094 253.149 263.1C254.045 263.091 255.447 257.778 254.815 256.799C253.996 255.533 252.766 257.308 252.548 260.142Z" fill="black"/>
<path d="M263.456 254.313C263.468 254.713 263.845 255.041 264.34 255.047C264.741 255.033 264.881 254.616 264.584 254.155C263.914 253.119 263.455 253.171 263.456 254.313Z" fill="black"/>
<path d="M262.406 261.439C262.439 261.744 262.869 262.282 263.361 262.535C264.043 262.829 264.2 262.564 263.873 261.552C263.418 260.214 262.389 260.144 262.406 261.439Z" fill="black"/>
<path d="M260.984 267.989C260.865 268.312 261.063 268.999 261.398 269.517C261.94 270.228 262.056 270.153 261.96 268.991C261.889 267.486 261.194 266.793 260.984 267.989Z" fill="black"/>
<path d="M181.631 319.872C181.742 320.044 182.523 320.111 183.382 320.045C184.242 319.979 184.836 319.758 184.762 319.642C184.65 319.47 183.87 319.403 183.01 319.469C182.151 319.535 181.556 319.757 181.631 319.872Z" fill="black"/>
<path d="M189.994 315.688C190.007 316.088 190.325 316.453 190.726 316.439C191.126 316.425 191.209 316.045 190.911 315.585C190.279 314.606 190.031 314.603 189.994 315.688Z" fill="black"/>
<path d="M189.645 319.586C189.757 319.759 190.538 319.825 191.397 319.759C192.256 319.693 192.851 319.472 192.776 319.357C192.665 319.184 191.884 319.118 191.025 319.184C190.165 319.25 189.571 319.471 189.645 319.586Z" fill="black"/>
<path d="M249.759 289.937C249.475 291.019 250.227 291.675 250.85 290.864C251.143 290.43 252.453 290.807 254.003 291.682C256.458 293.196 258.878 293.263 260.96 291.917C261.712 291.431 261.637 291.316 260.303 291.281C259.427 291.194 258.728 290.748 258.699 290.196C258.707 289.701 258.501 289.508 258.249 289.753C258.034 290.055 256.224 289.919 254.287 289.458C250.771 288.712 250.006 288.798 249.759 289.937Z" fill="black"/>
<path d="M216.376 315.278C217.363 315.537 228.528 311.5 234.294 308.752C237.561 307.21 243.912 303.593 248.327 300.657L256.422 295.423L246.584 301.131C241.137 304.245 236.267 306.986 235.805 307.285C234.69 307.843 220.696 313.463 217.896 314.458C216.822 314.826 216.091 315.217 216.376 315.278Z" fill="black"/>
<path d="M224.731 310.446C224.434 311.128 224.525 311.396 224.929 311.134C225.276 310.91 225.611 310.286 225.598 309.886C225.614 308.896 225.383 309.046 224.731 310.446Z" fill="black"/>
<circle cx="180.393" cy="192.393" r="45.3933" fill="#F2F4F3" stroke="black" stroke-width="2"/>
<circle cx="180.393" cy="192.393" r="27.996" fill="black"/>
<circle cx="190.792" cy="168.397" r="9.59862" fill="white"/>
<path d="M137.586 264.188C171.147 284.003 187.573 282.097 214.205 264.188" stroke="black" stroke-width="3"/>
<path d="M162.891 280.004C175.515 286.892 181.694 286.229 191.711 280.004" stroke="black" stroke-width="3"/>
<path d="M138.289 259.619C135.096 262.006 134.027 263.669 133.72 267.352M214.205 259.619C216.541 262.285 217.427 263.961 218.071 267.352" stroke="black" stroke-width="3"/>
<path d="M186.903 107.275C170.945 107.276 145.73 98.0581 142.946 97.0206L97.9462 97.1313H97.9393C97.1183 97.1313 96.3355 96.7874 95.7791 96.1849C95.2206 95.5794 94.9424 94.7682 95.01 93.9482L98.922 47.0361C100.542 33.0046 108.409 23.2749 119.973 20.9177L166.495 11.4291C166.103 10.5317 165.891 9.53824 165.906 8.49778L165.916 7.73066C165.942 5.83293 166.706 4.05866 168.067 2.73505C169.428 1.41145 171.213 0.699187 173.119 0.724659L178.454 0.801081C182.368 0.856925 185.509 4.08707 185.455 8.00106L185.444 8.76818C185.43 9.81354 185.192 10.8217 184.754 11.7358L230.776 21.5516C247.075 25.0619 254.956 38.6027 256.904 50.1252L261.47 72.5393C281.133 75.9909 297.095 81.5214 304.268 84.2499C312.63 86.9804 312.872 89.6266 312.979 90.7984C313.441 95.8479 305.716 96.5552 302.003 96.8952C278.375 99.0614 246.588 90.6073 240.996 89.0506C230.761 91.8535 221.675 95.7901 213.828 99.1897C204.761 103.118 196.93 106.51 190.013 107.143C189.028 107.233 187.986 107.275 186.903 107.275ZM151.339 93.718C160.983 96.9158 179.01 102.235 189.479 101.289C195.454 100.742 202.877 97.5277 211.471 93.8059C211.478 93.8027 211.486 93.7995 211.493 93.7963C211.496 93.7949 211.5 93.7935 211.503 93.7921C219.746 90.221 229.312 86.0769 240.212 83.1683C240.238 83.1605 240.265 83.1536 240.291 83.1477C245.962 81.639 251.993 80.4643 258.386 79.8794C260.837 79.655 263.39 79.5149 266.007 79.4561C259.382 78.112 252.245 76.9667 244.835 76.2426C234.464 75.3913 223.994 75.3766 213.554 76.1995C185.794 79.0946 163.738 87.8181 152.792 92.9146C152.297 93.183 151.812 93.4515 151.339 93.718ZM254.315 86.2691C266.779 89.028 286.216 92.4335 301.469 91.0414C302.708 90.9277 303.71 90.7974 304.518 90.6642C303.762 90.3663 302.732 89.9676 301.448 89.4934C292.565 86.8432 275.465 84.2176 258.92 85.7322C257.366 85.8753 255.829 86.0546 254.315 86.2691ZM175.703 15.8173C174.829 15.8192 173.953 15.9084 173.097 16.0828L121.149 26.6775C112.198 28.5017 106.076 36.3307 104.772 47.6181L101.135 91.2451L140.844 91.1481L140.983 54.4223C140.983 44.0352 143.078 31.1313 159.409 23.5826C159.451 23.563 159.494 23.5453 159.537 23.5267L172.535 18.2519C174.04 17.6435 175.754 18.3665 176.364 19.8704C176.975 21.3743 176.25 23.0888 174.746 23.6992L161.814 28.9456C148.676 35.0463 146.863 44.7994 146.863 54.4321L146.73 89.2847C147.844 88.7243 149.157 88.0845 150.657 87.386C163.682 80.4143 183.314 73.0458 210.593 70.5495C211.396 70.476 212.201 70.4064 213.005 70.3428C213.77 70.2634 214.54 70.1889 215.314 70.1184C226.665 69.0779 238.01 69.4826 248.675 70.6847C250.872 70.9031 253.065 71.1569 255.252 71.4489L251.138 51.247C251.131 51.2137 251.124 51.1804 251.119 51.1461C250.335 46.4718 246.462 30.9403 229.546 27.2957L175.703 15.8173ZM173.018 6.60299C172.587 6.60299 172.3 6.81951 172.166 6.94982C172.03 7.08208 171.801 7.37012 171.795 7.81099L171.784 8.57811C171.775 9.25216 172.316 9.80963 172.991 9.81943L178.325 9.89486C178.765 9.92523 179.06 9.68129 179.197 9.54902C179.333 9.41676 179.561 9.12872 179.567 8.68784L179.578 7.92072C179.586 7.24667 179.046 6.68921 178.371 6.67941L173.036 6.60299C173.03 6.60299 173.024 6.60299 173.018 6.60299Z" fill="black"/>
<path d="M175.703 15.8173C174.829 15.8192 173.953 15.9084 173.097 16.0828L121.149 26.6775C112.198 28.5017 106.076 36.3307 104.772 47.6181L101.135 91.2451L140.844 91.1481L140.983 54.4223C140.983 44.0352 143.078 31.1313 159.409 23.5826C159.451 23.563 159.494 23.5453 159.537 23.5267L172.535 18.2519C174.04 17.6435 175.754 18.3665 176.364 19.8704C176.975 21.3743 176.25 23.0888 174.746 23.6992L161.814 28.9456C148.676 35.0463 146.863 44.7994 146.863 54.4321L146.73 89.2847C147.844 88.7243 149.157 88.0845 150.657 87.386C163.682 80.4143 183.314 73.0458 210.593 70.5495C211.396 70.476 212.201 70.4064 213.005 70.3428C213.77 70.2634 214.54 70.1889 215.314 70.1184C226.665 69.0779 238.01 69.4826 248.675 70.6847C250.872 70.9031 253.065 71.1569 255.252 71.4489L251.138 51.247C251.131 51.2137 251.124 51.1804 251.119 51.1461C250.335 46.4718 246.462 30.9403 229.546 27.2957L175.703 15.8173Z" fill="#FF0000"/>
<path d="M151.339 93.718C160.983 96.9158 179.01 102.235 189.479 101.289C195.454 100.742 202.877 97.5277 211.471 93.8059L211.493 93.7963L211.503 93.7921C219.746 90.221 229.312 86.0769 240.212 83.1683C240.238 83.1605 240.265 83.1536 240.291 83.1477C245.962 81.639 251.993 80.4643 258.386 79.8794C260.837 79.655 263.39 79.5149 266.007 79.4561C259.382 78.112 252.245 76.9667 244.835 76.2426C234.464 75.3913 223.994 75.3766 213.554 76.1995C185.794 79.0946 163.738 87.8181 152.792 92.9146C152.297 93.183 151.812 93.4515 151.339 93.718Z" fill="#FF0000"/>
<path d="M254.315 86.2691C266.779 89.028 286.216 92.4335 301.469 91.0414C302.708 90.9277 303.71 90.7974 304.518 90.6642C303.762 90.3663 302.732 89.9676 301.448 89.4934C292.565 86.8432 275.465 84.2176 258.92 85.7322C257.366 85.8753 255.829 86.0546 254.315 86.2691Z" fill="white"/>
<path fill-rule="evenodd" clip-rule="evenodd" d="M146.5 387C151.194 387 155 390.806 155 395.5V405L149 405L138 405H127H105C105 403.161 105.569 401.341 106.675 399.642C107.78 397.944 109.401 396.401 111.444 395.101C113.487 393.8 115.912 392.769 118.581 392.066C121.25 391.362 124.111 391 127 391C129.889 391 132.75 391.362 135.419 392.066C136.441 392.335 137.427 392.652 138.369 393.014C139.432 389.533 142.67 387 146.5 387Z" fill="black"/>
<path fill-rule="evenodd" clip-rule="evenodd" d="M209.5 387C204.806 387 201 390.806 201 395.5V405L207 405L218 405H229H251C251 403.161 250.431 401.341 249.325 399.642C248.22 397.944 246.599 396.401 244.556 395.101C242.513 393.8 240.088 392.769 237.419 392.066C234.75 391.362 231.889 391 229 391C226.111 391 223.25 391.362 220.581 392.066C219.559 392.335 218.573 392.652 217.631 393.014C216.568 389.533 213.33 387 209.5 387Z" fill="black"/>
</svg>
