<svg width="402" height="459" viewBox="0 0 402 459" fill="none" xmlns="http://www.w3.org/2000/svg">
<path d="M156 309.868C156 303.866 160.866 299 166.868 299C173.342 299 178.367 304.633 177.758 311.078C175.049 339.773 175.077 359.999 177.778 388.932C178.38 395.376 173.352 401 166.88 401C160.871 401 156 396.129 156 390.12V309.868Z" fill="black"/>
<path d="M217.952 304.951C217.474 298.52 222.535 293 228.984 293C235.068 293 240 297.932 240 304.016V390.018C240 396.083 235.083 401 229.018 401C222.563 401 217.511 395.454 218.009 389.018C220.419 357.928 220.285 336.293 217.952 304.951Z" fill="black"/>
<path d="M58.7122 350.22C67.4315 342.708 63.8724 323.558 52.3765 318.699C39.1349 309.78 46.0381 305.54 32.0714 312.4C26.2381 312.4 0.471413 318.7 2.07141 331.9C3.67141 345.1 8.16566 346.4 9.71279 345.4C4.67056 362.24 23.9175 354.22 25.5714 352.9C25.5714 371.593 39.3092 368.547 44.4569 362.316C48.5751 357.331 49.7185 351.686 49.1906 348.754C49.9074 352.468 51.4992 356.434 58.7122 350.22Z" fill="white"/>
<path d="M48.8127 346.555C49.4877 350.368 49.9929 357.732 58.7122 350.22C67.4315 342.708 63.8724 323.558 52.3765 318.699C39.1349 309.78 46.0381 305.54 32.0714 312.4C26.2381 312.4 0.471411 318.7 2.07141 331.9C3.67141 345.1 8.16566 346.4 9.71279 345.4M49.1906 348.754C49.7185 351.686 48.5751 357.331 44.4569 362.316C39.3092 368.547 25.5714 371.593 25.5714 352.9C23.9175 354.22 4.67056 362.24 9.71279 345.4M12.5714 336.4C10.6882 339.988 9.71279 345.4 9.71279 345.4" stroke="black" stroke-width="4"/>
<path d="M53.781 344.772C53.781 344.772 56.2159 345.846 52.666 346.294C49.1162 346.741 47.3486 346.73 45.3241 347.755C43.7045 348.575 43.3957 350.986 43.3977 350.957C43.9332 343.894 53.781 344.772 53.781 344.772Z" fill="black"/>
<path d="M43.3977 350.957C43.3996 350.928 43.3955 350.986 43.3977 350.957ZM43.3977 350.957C43.9332 343.894 53.781 344.772 53.781 344.772C53.781 344.772 56.2159 345.846 52.666 346.294C49.1162 346.741 47.3486 346.73 45.3241 347.755C43.7045 348.575 43.3957 350.986 43.3977 350.957Z" stroke="black"/>
<path d="M18.5714 309C18.5714 312.892 20.7484 316.595 24.6266 319.4C28.5024 322.204 33.9565 324 40.0714 324C46.1864 324 51.6405 322.204 55.5162 319.4C59.3944 316.595 61.5714 312.892 61.5714 309C61.5714 305.108 59.3944 301.405 55.5162 298.6C51.6405 295.796 46.1864 294 40.0714 294C33.9565 294 28.5024 295.796 24.6266 298.6C20.7484 301.405 18.5714 305.108 18.5714 309Z" fill="white" stroke="black" stroke-width="4"/>
<path d="M91.1697 243.761C95.8507 239.058 94.4436 230.974 88.2999 228.466C85.1636 227.186 81.5554 227.774 79.0354 230.037C53.7899 252.716 43.0315 271.052 30.7732 301.853C28.762 306.906 31.2465 312.621 36.2821 314.676C41.4247 316.775 47.2803 314.282 49.404 309.149C59.7199 284.218 69.2593 265.776 91.1697 243.761Z" fill="black"/>
<path d="M342.859 350.22C334.14 342.708 337.699 323.558 349.195 318.699C362.437 309.78 355.533 305.54 369.5 312.4C375.333 312.4 401.1 318.7 399.5 331.9C397.9 345.1 393.406 346.4 391.859 345.4C396.901 362.24 377.654 354.22 376 352.9C376 371.593 362.262 368.547 357.115 362.316C352.996 357.331 351.853 351.686 352.381 348.754C351.664 352.468 350.072 356.434 342.859 350.22Z" fill="white"/>
<path d="M352.759 346.555C352.084 350.368 351.579 357.732 342.859 350.22C334.14 342.708 337.699 323.558 349.195 318.699C362.437 309.78 355.533 305.54 369.5 312.4C375.333 312.4 401.1 318.7 399.5 331.9C397.9 345.1 393.406 346.4 391.859 345.4M352.381 348.754C351.853 351.686 352.996 357.331 357.115 362.316C362.262 368.547 376 371.593 376 352.9C377.654 354.22 396.901 362.24 391.859 345.4M389 336.4C390.883 339.988 391.859 345.4 391.859 345.4" stroke="black" stroke-width="4"/>
<path d="M347.791 344.772C347.791 344.772 345.356 345.846 348.905 346.294C352.455 346.741 354.223 346.73 356.247 347.755C357.867 348.575 358.176 350.986 358.174 350.957C357.638 343.894 347.791 344.772 347.791 344.772Z" fill="black"/>
<path d="M358.174 350.957C358.172 350.928 358.176 350.986 358.174 350.957ZM358.174 350.957C357.638 343.894 347.791 344.772 347.791 344.772C347.791 344.772 345.356 345.846 348.905 346.294C352.455 346.741 354.223 346.73 356.247 347.755C357.867 348.575 358.176 350.986 358.174 350.957Z" stroke="black"/>
<path d="M383 309C383 312.892 380.823 316.595 376.945 319.4C373.069 322.204 367.615 324 361.5 324C355.385 324 349.931 322.204 346.055 319.4C342.177 316.595 340 312.892 340 309C340 305.108 342.177 301.405 346.055 298.6C349.931 295.796 355.385 294 361.5 294C367.615 294 373.069 295.796 376.945 298.6C380.823 301.405 383 305.108 383 309Z" fill="white" stroke="black" stroke-width="4"/>
<path d="M310.402 243.761C305.721 239.058 307.128 230.974 313.272 228.466C316.408 227.186 320.016 227.774 322.536 230.037C347.782 252.716 358.54 271.052 370.798 301.853C372.81 306.906 370.325 312.621 365.289 314.676C360.147 316.775 354.291 314.282 352.168 309.149C341.852 284.218 332.312 265.776 310.402 243.761Z" fill="black"/>
<circle cx="200.5" cy="191.5" r="128.5" transform="rotate(-32.8873 200.5 191.5)" fill="white" stroke="black" stroke-width="4"/>
<path d="M118.543 93.1053C112.993 97.8364 104.343 106.776 98.9144 113.469C94.2244 119.276 84.5086 136.331 81.4474 144.023C69.7141 173.808 69.8805 207.16 81.8893 237.017C85.8687 246.849 94.3496 261.359 101.133 269.949C124.59 299.504 160.839 318.665 195.814 319.879C198.615 320.026 200.867 319.958 200.792 319.843C200.718 319.728 197.615 319.367 193.922 318.981C173.678 317.218 151.431 309.568 135.05 298.942C125.181 292.429 124.069 291.598 123.767 290.243C123.663 289.575 122.985 289.034 122.262 288.93C121.043 288.821 115.055 284.124 115.257 283.422C115.422 282.663 118.83 281.846 118.818 282.589C118.843 283.388 119.784 282.943 119.97 282.088C120.151 281.481 116.772 280.566 116.02 281.052C114.769 281.779 112.153 280.777 110.409 278.967C108.234 276.619 108.391 276.355 112.795 275.303C117.408 274.196 116.243 273.155 110.877 273.605C106.217 274.006 104.548 273.454 104.088 271.221C103.893 270.286 106.219 269.19 113.195 267.046C116.396 266.037 113.773 265.53 108.708 266.193C105.804 266.521 103.358 266.796 103.321 266.739C103.247 266.623 103.089 265.746 102.973 264.679C102.712 263.134 103.005 262.699 104.405 262.202C106.669 261.391 111.382 260.058 112.989 259.753C113.716 259.609 114.083 259.29 113.823 258.887C113.599 258.542 110.968 258.53 108.064 258.857C103.173 259.408 102.698 259.307 102.511 257.877C102.303 255.4 103.17 254.84 109.011 253.348C112.018 252.546 114.492 251.681 114.554 251.396C114.698 250.731 114.603 250.711 108.337 251.417C103.446 251.968 102.78 251.827 102.668 250.513C102.585 249.75 102.638 248.818 102.853 248.516C103.014 248.004 111.812 245.253 114.757 244.736C115.426 244.63 115.852 244.273 115.666 243.985C115.442 243.64 112.695 243.702 109.58 244.084C106.466 244.466 103.718 244.529 103.57 244.299C103.421 244.068 103.474 243.136 103.738 242.15C104.163 240.651 104.567 240.389 110.676 238.805C114.258 237.877 117.211 236.865 117.273 236.58C117.396 236.011 117.95 235.979 111.34 236.662C105.991 237.265 104.512 236.753 105.539 234.538C105.972 233.686 107.682 232.907 111.953 231.777C115.171 230.921 118.273 230.139 118.752 229.993C119.211 229.941 119.521 229.659 119.335 229.371C119.186 229.141 116.439 229.204 113.249 229.47C107.441 230.125 106.532 229.733 107.638 227.386C108.092 226.44 109.839 225.718 114.99 224.428C118.724 223.482 121.83 222.453 121.913 222.073C121.937 221.731 121.578 221.555 121.099 221.702C118.686 222.282 110.499 222.68 109.99 222.274C109.651 222.004 109.779 221.187 110.192 220.43C110.86 219.182 115.693 217.526 124.727 215.52C127.56 214.831 123.788 214.576 118.48 214.989C115.692 215.242 113.155 215.25 112.969 214.962C112.725 214.712 112.853 213.895 113.208 213.176C113.624 212.172 115.409 211.507 121.192 210.053C125.252 208.978 128.453 207.969 128.304 207.739C128.118 207.451 125.16 207.569 121.761 207.89C116.068 208.47 115.498 208.349 116.034 207.022C116.352 206.246 116.88 205.415 117.285 205.153C118.499 204.368 129.474 201.433 130.425 201.635C131.528 201.819 132.374 201.353 131.965 200.72C131.816 200.49 129.032 200.495 125.822 200.857C122.67 201.181 119.807 201.319 119.485 201.2C119.183 200.987 119.29 200.265 119.724 199.414C120.372 198.26 121.602 197.628 125.799 196.383C128.711 195.561 132.024 194.725 133.189 194.624C134.411 194.487 135.58 194.139 135.873 193.705C136.146 193.365 133.609 193.373 130.172 193.637C122.476 194.288 122.096 194.207 123.388 192.148C124.288 190.75 125.498 190.212 132.008 188.614C136.106 187.597 139.613 186.553 139.617 186.306C139.678 186.021 137.369 186.127 134.486 186.359C131.582 186.687 128.45 186.916 127.574 186.829C125.955 186.734 125.918 186.676 126.723 185.258C127.449 183.973 128.659 183.435 133.641 182.009C136.937 181.02 140.592 180.207 141.778 180.012C142.98 179.969 143.711 179.578 143.488 179.233C143.302 178.945 140.823 178.915 137.977 179.205C135.073 179.533 131.999 179.725 131.123 179.638C129.504 179.543 129.467 179.485 130.329 178.03C131.056 176.744 132.382 176.131 138.912 174.438C143.125 173.346 146.653 172.208 146.715 171.923C146.814 171.696 144.066 171.759 140.704 172.137C133.826 172.912 133.066 172.751 133.63 170.835C134.01 169.774 135.22 169.236 140.776 167.684C144.473 166.681 148.112 165.715 148.839 165.571C149.508 165.465 149.933 165.109 149.747 164.821C149.561 164.533 146.967 164.578 144.042 165.001C137.718 165.744 136.329 165.499 136.742 163.601C136.989 162.461 137.662 162.108 141.532 160.992C145.403 159.877 151.107 158.555 153.02 158.216C153.383 158.144 153.482 157.917 153.296 157.629C153.11 157.342 150.917 157.373 148.471 157.648C146.005 158.019 142.894 158.153 141.58 158.023C139.106 157.747 138.403 156.406 140.137 155.284C141.409 154.462 151.083 151.797 153.318 151.576C154.272 151.531 155.272 151.047 155.47 150.593C155.668 150.138 153.61 150 150.553 150.344C141.936 151.346 141.44 151.34 141.758 149.421C142.05 147.845 142.223 147.733 146.362 146.526C148.737 145.887 152.339 144.864 154.388 144.356C159.729 143.105 158.386 142.423 151.967 143.147C144.688 143.936 143.052 143.688 143.423 141.979C143.67 140.84 144.669 140.357 150.056 138.67C153.62 137.589 157.106 136.64 157.871 136.554C158.788 136.451 159.135 136.227 158.911 135.881C158.688 135.536 155.846 135.578 152.636 135.94C146.369 136.646 144.163 136.277 144.575 134.379C144.802 133.334 149.56 131.563 158.908 129.028C161.494 128.336 158.659 127.883 155.16 128.432C148.927 129.443 144.213 128.492 145.22 126.372C145.476 125.88 156.025 122.16 158.991 121.548C159.928 121.35 160.122 121.143 159.631 120.89C159.176 120.694 156.313 120.831 153.256 121.176C147.601 121.813 145.072 121.326 145.026 119.479C145.001 118.679 146.174 118.084 150.585 116.537C153.617 115.393 156.76 114.422 157.487 114.278C158.214 114.134 158.582 113.815 158.358 113.47C158.135 113.125 155.388 113.187 152.273 113.569C146.539 114.338 144.259 113.855 144.196 111.855C144.191 110.96 145 110.437 149.337 108.775C152.121 107.628 155.017 106.653 155.706 106.452C156.376 106.346 156.801 105.989 156.578 105.644C156.354 105.299 154.694 105.393 152.876 105.752C149.489 106.474 143.139 106.417 142.656 105.669C142.507 105.439 142.403 104.772 142.432 104.182C142.427 103.287 143.257 102.669 147.061 100.944C149.634 99.8511 152.166 98.9483 152.794 99.0319C153.517 99.1357 153.864 98.9114 153.893 98.3216C153.843 97.8642 151.364 97.8348 148.287 98.2742C145.172 98.656 142.098 98.8479 141.454 98.6119C139.594 98.0187 139.139 95.5387 140.679 94.6242C142.471 93.4653 147.539 91.4125 149.088 91.1453C149.815 91.0017 150.183 90.6824 149.96 90.3371C149.736 89.9918 147.047 90.017 143.969 90.4564C140.913 90.8009 138.012 90.8807 137.504 90.4749C136.975 90.1641 135.917 88.4002 135.048 86.6767L133.46 83.4599L139.849 79.8999C154.226 71.828 172.28 66.2744 189.816 64.4837C202.977 63.1551 213.364 63.6209 226.349 66.0783C243.537 69.3278 254.152 73.318 269.017 82.2316C273.719 85.0666 277.666 87.4929 277.815 87.7231C277.964 87.9533 277.671 88.3876 277.15 88.7241C276.63 89.0606 276.453 89.4201 276.717 89.5755C285.974 95.0153 287.024 96.1318 284.344 97.9465C283.418 98.5447 279.56 97.7755 274.477 96.002C272.068 95.193 268.375 95.9487 269.157 97.1572C269.38 97.5025 269.876 97.5084 270.148 97.169C270.714 96.3952 271.908 96.8472 275.892 99.331C277.119 100.088 279.066 101.196 280.124 101.818C281.768 102.713 281.991 103.058 281.616 103.872C280.787 105.633 280.08 105.681 274.04 104.201C270.734 103.401 267.805 102.928 267.4 103.19C266.533 103.75 266.963 104.289 268.653 104.746C269.45 104.965 272.099 106.272 274.574 107.691C278.24 109.809 279.029 110.523 278.691 111.395C278.225 113.083 276.205 113.002 269.767 111.289C263.805 109.676 262.31 110.153 266.872 112.263C271.756 114.491 276.703 117.577 276.728 118.377C276.775 120.224 274.465 120.329 268.71 118.91C265.367 118.051 262.57 117.657 262.488 118.036C262.405 118.416 263.046 118.899 263.843 119.118C266.727 120.028 274.794 124.769 274.989 125.704C275.415 127.631 273.449 127.76 267.656 126.283C260.971 124.566 259.001 124.943 263.736 126.941C269.397 129.482 274.575 132.418 274.732 133.296C275.142 135.071 273.329 135.183 266.908 133.622C263.376 132.723 260.409 132.193 260.31 132.42C260.306 132.668 263.463 134.38 267.323 136.292C274.021 139.55 275.732 141.055 274.056 142.139C273.651 142.401 270.474 141.925 266.941 141.027C260.863 139.489 258.285 139.687 262.434 141.411C263.591 141.806 266.942 143.311 269.971 144.699C274.988 147.004 275.364 147.332 275.055 148.756C274.746 150.18 274.155 150.154 267.945 148.539C261.26 146.823 258.451 147.17 263.607 149.058C272.954 152.482 278.029 155.892 275.89 157.275C275.543 157.5 272.518 157.007 269.176 156.149C265.738 155.27 262.921 154.97 262.838 155.35C262.698 155.767 263.016 156.133 263.512 156.139C265.611 156.087 277.375 162.109 277.793 163.389C278.029 164.134 278.017 164.877 277.786 165.026C277.497 165.213 274.398 164.605 270.828 163.649C264.333 161.973 261.735 162.266 266.796 164.134C268.218 164.684 271.627 166.152 274.296 167.364C278.176 169.181 279.251 169.955 279.553 171.31C279.872 172.817 279.566 172.852 273.03 171.366C269.249 170.464 266.072 169.989 266.011 170.274C265.986 170.616 267.007 171.18 268.354 171.615C272.981 173.193 280.531 176.88 281.275 178.031C282.801 180.39 281.52 180.565 275.12 178.91C271.455 177.933 268.468 177.498 268.386 177.878C268.303 178.258 269.134 178.781 270.254 179.118C273.824 180.074 283.001 184.504 283.746 185.655C285.16 187.842 283.726 188.035 277.363 186.436C273.736 185.518 270.769 184.987 270.765 185.235C270.666 185.462 273.976 187.157 278.067 188.919C285.699 192.227 286.265 192.595 286.291 194.537C286.296 195.432 284.866 195.377 279.966 194.138C276.471 193.297 273.579 192.882 273.459 193.205C273.434 193.547 274.455 194.111 275.802 194.546C278.818 195.533 287.979 199.811 288.352 200.386C288.538 200.674 288.621 201.437 288.629 202.084C288.613 203.074 287.432 203.021 282.304 201.685C278.829 200.749 275.879 200.372 275.834 200.809C275.752 201.189 276.582 201.713 277.702 202.049C282.26 203.265 290.582 207.513 290.942 208.831C291.083 209.556 291.071 210.298 290.782 210.485C290.551 210.635 287.584 210.104 284.299 209.209C280.994 208.408 278.218 207.918 278.156 208.203C278.131 208.546 279.776 209.441 281.879 210.284C289.156 213.169 292.404 215.149 292.665 216.694C292.852 218.124 292.356 218.118 286.77 216.833C283.464 216.033 280.556 215.465 280.44 215.54C279.862 215.914 281.292 217.111 282.887 217.549C283.912 217.865 286.887 219.043 289.498 220.292C293.511 222.186 294.321 222.805 294.545 224.292C294.764 226.027 294.574 225.987 288.649 224.432C285.27 223.516 282.435 223.064 282.295 223.481C282.25 223.918 282.833 224.439 283.688 224.62C284.523 224.897 287.477 226.169 290.221 227.496C294.159 229.275 295.345 230.222 295.837 231.617C296.4 233.375 296.305 233.355 290.132 231.797C286.637 230.956 283.745 230.541 283.72 230.884C283.638 231.263 284.163 231.822 284.845 232.115C285.584 232.371 288.613 233.759 291.51 235.069C296.489 237.317 296.865 237.645 296.858 239.282C296.793 240.956 296.602 240.916 291.438 239.522C288.496 238.65 285.757 238.217 285.352 238.479C284.311 239.152 284.948 239.883 286.869 240.191C287.782 240.335 290.451 241.547 292.89 242.909C296.877 245.145 297.291 245.531 297.06 246.822C296.734 248.094 296.181 248.125 291.454 246.775C286.479 245.421 284.612 245.323 285.393 246.532C285.542 246.762 288.001 248.028 290.786 249.165C296.145 251.494 297.48 252.671 296.858 254.624C296.557 255.554 295.47 255.522 291.218 254.272C288.314 253.457 285.69 252.95 285.459 253.1C284.534 253.698 285.662 254.682 288.298 255.589C289.72 256.139 292.104 257.29 293.559 258.145C296.261 259.662 296.336 259.777 295.89 261.371C295.445 262.964 295.197 262.961 290.09 261.53C284.016 259.745 282.377 260.887 287.736 263.216C294.1 265.956 294.72 266.534 294.246 268.718L293.871 270.674L288.768 268.996C283.987 267.435 281.699 267.446 282.666 268.942C282.89 269.287 283.72 269.811 284.48 269.973C285.278 270.191 287.398 271.187 289.212 272.218C292.311 273.968 292.518 274.161 291.982 275.487C291.202 277.705 290.591 277.774 285.678 276.135C282.529 275.07 280.835 274.86 280.253 275.481C279.65 276.197 279.328 276.079 279.171 275.201C278.939 274.209 278.881 274.246 278.46 275.498C277.94 276.976 278.804 277.805 280.018 277.02C280.943 276.422 283.274 277.363 286.572 279.801C288.948 281.447 289.06 281.62 288.499 283.288C288.095 284.692 287.785 284.974 287.008 284.66C286.517 284.407 286.087 283.869 286.053 283.564C286.041 283.164 285.793 283.161 285.368 283.517C285.037 283.894 284.525 283.736 284.343 283.201C284.161 282.666 283.896 282.51 283.814 282.89C283.769 283.327 282.339 283.272 280.687 282.872C275.729 281.671 274.927 281.699 274.746 283.449C274.611 284.76 274.648 284.818 275.271 284.007C275.837 283.233 277.014 283.533 280.076 285.225C283.932 287.384 284.139 287.576 283.64 288.96C282.047 293.091 298.368 275.601 305.725 265.294C316.144 250.723 325.63 229.001 328.753 212.782C333.569 187.388 330.681 163.141 319.947 138.172C315.939 128.93 305.594 112.932 297.992 104.219C294.735 100.449 291.734 97.3298 291.222 97.1715C290.746 97.0707 289.994 96.4145 289.548 95.724C289.064 94.9758 285.563 92.098 281.757 89.2546C257.055 70.7065 229.412 61.8126 198.867 62.6304C182.726 63.0291 160.842 68.3659 146.118 75.5199C141.216 77.9555 122.082 90.0826 118.543 93.1053ZM128.803 89.5722C133.452 91.055 137.679 93.7892 138.354 95.7198C138.9 97.3252 138.652 97.3223 133.719 95.779C129.24 94.4314 127.05 94.2151 127.683 95.1934C127.757 95.3085 130.654 96.6183 134.121 98.049C139.178 100.165 140.48 101.037 140.972 102.432C141.262 103.388 141.552 104.343 141.511 104.533C141.469 104.722 138.978 104.293 136.053 103.573C130.107 102.113 129.504 102.829 134.983 104.836C140.388 106.727 141.69 107.599 142.641 110.085C143.175 111.291 143.328 112.416 143.039 112.603C142.692 112.827 142.35 112.804 142.163 112.516C141.585 111.748 133.094 109.649 132.95 110.313C132.888 110.598 134.512 111.588 136.615 112.431C142.755 114.827 143.47 115.425 143.947 117.81L144.274 119.965L139.147 118.629C133.317 117.094 131.933 117.744 136.842 119.63C138.586 120.297 140.933 121.391 142.181 122.053C144.165 123.219 144.351 123.507 144.302 125.334C144.299 127.865 143.857 128.069 141.436 126.86C139.014 125.652 133.577 124.597 134.135 125.46C134.358 125.806 136.325 126.819 138.503 127.777C142.784 129.579 144.115 131.004 143.939 133.648C143.778 135.302 143.721 135.339 141.903 134.556C138.473 133.183 133.684 132.117 133.503 132.724C133.478 133.067 135.197 134.077 137.47 135.056C141.958 137.051 143.289 138.475 142.658 140.923C142.175 142.459 141.927 142.456 137.564 141.034C131.399 138.981 129.879 139.801 135.487 142.133C140.127 144.11 141.536 145.402 141.219 147.321C140.857 149.677 139.973 150.086 137.589 148.934C135.337 147.86 130.837 146.608 130.375 146.907C129.681 147.356 130.962 148.323 134.313 149.828C138.574 151.725 139.711 153.357 138.584 155.799C137.792 157.617 137.697 157.597 135.862 156.661C133.102 155.182 127.937 153.788 127.83 154.51C127.768 154.795 129.372 155.88 131.396 156.856C135.541 158.827 136.421 159.809 136.001 162.202C135.701 164.273 134.545 165.021 133.226 163.997C131.701 162.779 125.396 161.144 125.231 161.903C125.111 162.225 126.413 163.097 128.041 163.84C132.624 165.855 133.579 166.951 132.808 169.817C132.42 171.373 131.97 172.072 131.499 171.724C130.313 170.777 122.438 168.361 121.86 168.735C121.05 169.258 121.352 169.471 125.195 171.23C129.265 173.087 130.013 173.99 129.531 176.669C129.049 179.347 128.723 179.476 125.963 177.997C123.297 176.538 118.319 175.432 118.154 176.191C118.092 176.476 119.621 177.446 121.551 178.401C125.716 180.278 126.464 181.182 125.982 183.86C125.542 186.348 124.885 186.855 123.587 185.735C122.194 184.596 114.77 182.623 114.625 183.287C114.543 183.667 116.072 184.637 118.002 185.593C122.167 187.47 122.915 188.373 122.433 191.051C121.951 193.73 121.625 193.859 118.865 192.38C116.162 190.863 111.221 189.814 111.035 190.669C110.973 190.954 111.916 191.65 113.205 192.122C117.506 193.829 118.668 195.118 118.566 197.877C118.525 199.209 118.257 200.444 118.026 200.593C117.795 200.743 116.411 200.25 114.993 199.453C112.043 197.933 107.672 197.006 107.486 197.86C107.424 198.145 108.367 198.841 109.656 199.314C114.412 201.216 116.202 203.731 114.989 206.801C114.51 208.089 114.205 208.124 111.444 206.644C108.399 205.105 102.85 203.878 103.557 204.971C103.817 205.374 105.008 206.073 106.239 206.583C110.086 208.094 111.438 209.424 111.683 211.958C112.015 215.008 111.11 215.511 108.218 213.954C105.552 212.495 99.3009 211.069 99.9707 212.105C100.194 212.45 102.008 213.48 103.901 214.379C107.479 215.982 108.905 217.427 108.332 218.695C108.134 219.15 108.241 219.57 108.601 219.745C108.923 219.863 108.969 220.568 108.787 221.175C108.466 222.199 107.78 222.153 105.032 221.073C100.181 219.15 97.8259 218.551 97.1321 219C96.7852 219.224 98.0292 220.134 99.9218 221.032C104.104 223.061 105.835 224.471 105.381 225.418C105.183 225.872 105.403 226.465 105.837 226.756C106.27 227.046 106.391 227.866 106.189 228.568C105.867 229.592 105.313 229.624 102.908 228.567C98.6482 226.67 93.9958 225.435 93.8516 226.099C93.827 226.442 95.6577 227.625 97.947 228.756C101.976 230.802 104.113 233.093 104.131 235.53C104.181 237.129 103.285 237.138 100.144 235.578C96.8137 233.977 91.1326 232.673 91.8024 233.708C92.0257 234.054 93.782 235.122 95.6746 236.02C102.013 239.102 105.586 245.769 99.599 243.357C90.5993 239.709 86.1542 239.809 94.0674 243.424C97.588 245.065 99.0014 246.11 99.4028 247.238C99.7297 248.25 100.312 248.771 100.887 248.645C101.519 248.481 101.684 248.864 101.474 250.061C101.144 251.579 100.991 251.597 98.3015 250.48C96.7106 249.795 93.7315 248.865 91.6036 248.363L87.8809 247.425L85.0975 241.472C77.785 225.471 73.7057 206.482 73.7624 188.818C73.9594 155.394 88.6694 121.971 113.275 99.2865C124.486 88.8547 125.122 88.4435 128.803 89.5722ZM133.407 85.5342C133.718 86.3944 134.326 87.7151 134.81 88.4632C135.665 89.7869 135.513 89.8041 132.228 88.9085C130.348 88.4103 128.699 87.7626 128.455 87.5122C128.306 87.282 129.293 86.3991 130.565 85.5766C132.762 84.156 133.01 84.1589 133.407 85.5342ZM288.615 96.8169C288.801 97.1047 288.47 97.4815 287.896 97.6079C287.285 97.6768 286.731 97.7083 286.657 97.5932C286.582 97.4781 286.913 97.1013 287.375 96.8022C287.838 96.5032 288.391 96.4717 288.615 96.8169ZM289.653 99.8179C292.557 99.4906 295.599 102.42 294.836 104.791C294.374 106.232 294.374 106.232 295.382 105.254C296.389 104.276 296.691 104.489 300.825 109.487C331.722 147.125 338.37 195.954 318.621 240.225C315.275 247.857 311.779 254.116 311.213 253.748C310.647 253.379 300.382 254.876 299.457 255.474C297.953 256.446 298.353 254.147 299.86 252.928C302.97 250.509 304.374 249.764 308.281 248.707C311.499 247.85 312.243 247.859 312.285 248.811C312.306 249.858 312.19 249.933 311.744 249.243C311.446 248.782 311.124 248.664 311.099 249.007C310.773 250.278 312.508 250.299 313.293 248.976C314.118 247.462 313.713 246.582 312.097 246.239C310.862 245.977 303.216 247.086 300.399 247.928C298.751 248.422 297.874 247.194 299.187 246.181C299.65 245.882 300.273 245.071 300.703 244.467C301.796 242.862 308.413 240.542 310.599 241.006C312.88 241.49 313.747 240.929 312.891 239.605C312.11 238.397 306.595 238.617 301.824 239.988C299.754 240.592 298.763 240.58 298.527 239.835C298.308 239.242 298.489 238.635 298.968 238.488C299.41 238.284 300.013 237.568 300.195 236.961C300.718 235.235 310.346 231.866 310.686 233.278C310.934 234.423 312.107 233.828 312.032 232.571C312.04 232.076 311.305 231.572 310.392 231.428C308.66 231.16 302.468 231.982 299.746 232.844C298.788 233.137 297.895 232.898 297.486 232.265C297.002 231.517 297.143 231.1 297.775 230.936C298.349 230.81 298.795 230.358 298.803 229.863C298.765 228.664 301.462 227.001 305.022 226.168C306.65 225.768 308.186 225.101 308.364 224.742C308.562 224.287 308.901 224.558 309.095 225.493C309.53 226.926 310.674 226.92 310.64 225.473C310.656 223.341 305.549 223.052 299.82 224.717C298.209 225.269 296.702 225.346 296.441 224.943C296.181 224.54 296.226 224.103 296.552 223.974C296.841 223.787 297.081 223.142 297.035 222.437C296.926 220.875 298.545 219.828 303.411 218.478C305.844 217.802 307.352 217.725 307.476 218.297C307.584 218.717 307.981 218.95 308.327 218.726C309.426 218.016 307.83 216.436 305.851 216.165C304.063 215.934 296.834 217.181 295.619 217.966C294.637 218.602 294.053 216.939 294.598 215.118C295.262 212.975 296.959 211.796 300.883 210.89C302.51 210.491 304.047 209.824 304.245 209.369C304.443 208.915 304.708 209.07 304.848 209.795C305.151 211.15 306.539 211.395 306.522 210.101C306.53 209.606 305.91 209.027 305.207 208.829C303.67 208.354 296.928 208.959 295.772 209.707C295.367 209.968 294.335 210.146 293.496 210.117C291.972 210.042 291.897 209.927 292.483 207.916C293.076 205.411 294.91 204.062 298.95 203.082C300.519 202.72 301.903 202.07 302.022 201.748C302.105 201.368 302.291 201.656 302.452 202.286C302.792 203.699 304.18 203.943 304.163 202.649C304.137 200.707 297.75 200.593 292.649 202.341C290.559 203.039 289.716 202.116 290.024 199.55C290.345 197.383 290.713 197.064 295.926 195.489C298.569 194.759 300.098 194.587 300.164 195.197C300.47 196.304 301.433 195.764 301.395 194.564C301.403 194.069 300.667 193.565 299.717 193.364C297.738 193.093 290.798 194.153 289.468 195.013C288.948 195.349 288.246 195.15 287.911 194.632C287.055 193.309 287.615 190.498 289.003 189.601C290.795 188.442 297.536 186.695 297.524 187.437C297.557 187.742 297.896 188.012 298.297 187.998C299.594 187.975 298.635 185.984 297.284 185.797C295.437 185.604 288.555 186.626 287.572 187.262C286.242 188.121 284.874 186.64 285.191 184.721C285.512 182.554 287.556 181.151 291.596 180.171C293.856 179.608 294.376 179.271 294.004 178.696C293.557 178.005 288.286 178.476 284.969 179.559C283.053 180.146 282.362 179.205 282.824 176.622C283.302 174.191 283.244 174.228 287.536 173.004C289.394 172.455 291.274 171.811 291.736 171.512C293.471 170.39 289.963 170.291 285.618 171.306C281.904 172.156 281.066 172.127 280.702 171.057C280.445 170.407 280.638 169.058 281.035 168.149C281.687 166.748 282.207 166.411 285.177 165.552C289.047 164.436 290.162 163.879 289.716 163.188C289.381 162.67 282.924 163.336 281.826 164.046C280.112 165.073 279.033 164.546 278.722 162.544C278.341 160.179 280.389 158.528 285.156 157.404C288.774 156.533 288.717 156.571 288.121 155.65C287.712 155.017 285.361 155.313 279.562 156.615C277.744 156.974 277.517 156.876 277.297 155.141C276.92 152.529 277.965 151.608 282.888 150.22C288.865 148.559 288.237 147.333 281.813 148.304C278.888 148.726 276.443 149.001 276.331 148.829C276.22 148.656 276.293 147.629 276.33 146.544C276.498 144.395 276.73 144.246 285.524 141.742C286.424 141.486 286.87 141.035 286.609 140.632C286.275 140.114 280.698 140.619 277.021 141.527C275.815 141.818 275.741 141.702 275.769 139.97C275.751 137.534 276.986 136.654 282.12 135.211C284.458 134.515 286.436 133.644 286.424 133.244C286.357 132.634 280.38 133.153 277.199 134.067C276.146 134.34 275.939 134.148 275.827 132.833C275.64 130.261 276.664 129.435 281.683 128.067C287.007 126.665 287.333 126.535 286.849 125.787C286.477 125.212 279.029 125.866 277.873 126.613C276.832 127.286 276.497 126.768 276.855 124.66C277.214 122.551 278.523 121.786 284.211 120.312C287.255 119.567 288.916 119.473 289.077 120.103C289.202 120.675 289.582 120.756 289.933 120.284C291.51 118.285 289.634 117.54 284.78 118.148C282.066 118.516 279.579 118.981 279.29 119.168C278.365 119.766 278.059 118.659 278.566 116.78C279.032 115.092 279.242 115.037 284.72 113.617C293.047 111.66 292.315 109.767 283.69 111.264C280.401 111.758 280.116 111.697 280.653 110.371C281.449 108.306 283.179 107.431 288.731 106.127C294.341 104.785 294.551 104.73 294.03 103.924C293.807 103.579 291.213 103.624 288.251 103.989C283.703 104.563 283.075 104.48 283.607 103.401C284.552 101.566 287.113 100.073 289.653 99.8179ZM93.6171 251.224C95.9642 252.318 98.3033 253.906 98.8242 254.712C99.3824 255.575 100.25 256.156 100.767 256.067C101.399 255.904 101.564 256.286 101.354 257.483C101.045 258.907 100.739 258.941 96.76 257.352C92.9131 255.841 92.2725 255.357 90.7342 252.598C89.8079 250.912 89.1255 249.476 89.2412 249.401C89.3568 249.327 91.365 250.15 93.6171 251.224ZM98.7043 262.134C99.2624 262.998 100.072 263.616 100.494 263.507C100.973 263.36 101.498 263.919 101.73 264.911C102.45 267.547 100.066 266.395 97.1512 262.649C94.8527 259.728 94.7617 259.461 96.1459 259.953C97.0177 260.287 98.1461 261.271 98.7043 262.134ZM299.03 260.646C299.617 260.92 299.926 260.638 300.207 259.804C300.648 258.457 303.684 257.066 307.777 256.296L310.512 255.833L308.811 258.402C307.168 260.933 307.111 260.971 302.538 261.887C297.143 262.927 297.296 262.91 297.332 261.826C297.274 260.721 298.083 260.197 299.03 260.646ZM298.748 267.439C299.512 266.211 303.956 263.827 304.365 264.46C304.551 264.747 303.866 265.843 302.912 267.031C301.472 268.861 300.74 269.252 298.407 269.7C295.978 270.128 295.598 270.047 295.77 268.793C295.885 267.576 296.001 267.501 296.985 268.008C297.741 268.417 298.278 268.233 298.748 267.439ZM295.258 275.735C295.555 276.195 295.469 276.822 295.006 277.122C293.85 277.869 292.697 277.227 293.341 276.321C294.278 274.981 294.7 274.872 295.258 275.735Z" fill="black"/>
<path d="M131.925 118.239C132.111 118.526 132.475 118.455 132.652 118.095C132.887 117.698 132.933 117.261 132.821 117.088C132.747 116.973 132.441 117.008 132.094 117.232C131.805 117.419 131.702 117.893 131.925 118.239Z" fill="black"/>
<path d="M130.037 140.678C130.223 140.966 130.586 140.894 130.764 140.535C130.999 140.138 131.044 139.7 130.933 139.528C130.858 139.413 130.553 139.447 130.206 139.671C129.917 139.858 129.814 140.333 130.037 140.678Z" fill="black"/>
<path d="M113.429 170.024C113.383 170.462 111.257 173.387 108.574 176.591C105.927 179.853 103.88 182.646 104.029 182.876C104.177 183.106 104.834 182.6 105.573 181.714C112.439 173.439 114.33 170.911 114.424 169.789C114.552 168.972 114.423 168.647 114.019 168.908C113.672 169.133 113.416 169.625 113.429 170.024Z" fill="black"/>
<path d="M108.623 191.249C108.809 191.537 109.172 191.465 109.35 191.106C109.585 190.709 109.63 190.271 109.519 190.099C109.444 189.984 109.139 190.018 108.792 190.242C108.503 190.429 108.4 190.904 108.623 191.249Z" fill="black"/>
<path d="M94.6786 219.77C94.7284 220.228 94.9969 220.136 95.3478 219.664C96.128 218.588 96.041 218.073 95.2316 218.597C94.8847 218.821 94.6288 219.313 94.6786 219.77Z" fill="black"/>
<path d="M91.828 227.408C92.0141 227.696 92.3776 227.624 92.555 227.264C92.7903 226.867 92.8355 226.43 92.7239 226.257C92.6494 226.142 92.3437 226.177 91.9968 226.401C91.7078 226.588 91.6047 227.063 91.828 227.408Z" fill="black"/>
<path d="M89.4811 234.557C89.4937 234.956 89.7954 235.169 90.0845 234.982C90.4314 234.758 90.5344 234.283 90.3484 233.996C90.1251 233.65 89.8606 233.495 89.745 233.57C89.5715 233.682 89.4313 234.099 89.4811 234.557Z" fill="black"/>
<path d="M87.4605 241.576C87.4731 241.976 87.717 242.226 88.0639 242.002C88.353 241.815 88.6295 241.228 88.6169 240.828C88.567 240.371 88.3604 240.178 88.0135 240.402C87.7244 240.589 87.4107 241.118 87.4605 241.576Z" fill="black"/>
<path d="M291.246 112.172C290.97 112.759 291.135 113.141 291.631 113.147C292.031 113.133 292.461 112.529 292.568 111.807C292.782 110.363 291.997 110.544 291.246 112.172Z" fill="black"/>
<path d="M287.883 126.751C287.863 127.988 288.987 128.078 289.254 126.844C289.399 126.179 289.175 125.834 288.68 125.828C288.221 125.88 287.833 126.294 287.883 126.751Z" fill="black"/>
<path d="M287.147 134.49C287.16 134.89 287.577 135.028 288.04 134.729C288.56 134.392 288.779 133.843 288.593 133.555C288.37 133.21 287.989 133.129 287.7 133.316C287.353 133.541 287.098 134.032 287.147 134.49Z" fill="black"/>
<path d="M287.61 141.291C287.49 141.613 287.614 142.186 287.837 142.531C288.061 142.876 288.313 142.632 288.457 141.967C288.58 141.398 288.456 140.825 288.229 140.727C287.944 140.667 287.634 140.949 287.61 141.291Z" fill="black"/>
<path d="M288.184 149.407C288.37 149.695 288.734 149.623 288.911 149.263C289.146 148.867 289.191 148.429 289.08 148.257C289.005 148.141 288.7 148.176 288.353 148.4C288.064 148.587 287.961 149.062 288.184 149.407Z" fill="black"/>
<path d="M289.266 156.787C289.279 157.187 289.58 157.4 289.87 157.213C290.216 156.988 290.319 156.514 290.133 156.226C289.91 155.881 289.646 155.725 289.53 155.8C289.357 155.912 289.216 156.329 289.266 156.787Z" fill="black"/>
<path d="M317.288 141.034C317.12 144.325 318.398 153.782 320.855 166.965C325.259 190.64 325.568 204.559 321.9 214.357C320.865 217.066 319.854 219.434 319.565 219.621C319.276 219.808 319.64 220.878 320.347 221.972C321.054 223.065 321.765 223.911 321.938 223.799C322.921 223.163 324.905 217.229 325.923 212.082C328.185 200.745 327.756 194.248 323.7 173.775C319.541 152.634 319.14 150.364 318.74 144.421C318.282 138.514 317.492 136.658 317.288 141.034Z" fill="black"/>
<path d="M290.918 164.287C291.043 164.86 291.419 165.188 291.708 165.001C292.055 164.777 292.026 164.224 291.728 163.764C291.43 163.304 291.054 162.975 290.938 163.05C290.823 163.125 290.852 163.677 290.918 164.287Z" fill="black"/>
<path d="M293.154 172.309C293.34 172.596 293.703 172.525 293.881 172.165C294.116 171.768 294.161 171.331 294.05 171.158C293.975 171.043 293.669 171.078 293.323 171.302C293.033 171.489 292.93 171.963 293.154 172.309Z" fill="black"/>
<path d="M295.326 179.473C295.624 179.933 296.062 179.976 296.239 179.617C296.438 179.162 296.293 178.685 295.933 178.509C294.892 178.04 294.657 178.437 295.326 179.473Z" fill="black"/>
<path d="M192.908 67.8706C193.094 68.1584 196.944 68.2802 201.464 68.2957C211.247 68.3356 224.67 70.8362 242.247 75.9559C249.061 77.9974 255.027 79.3626 255.547 79.0261C256.357 78.5027 256.245 78.3301 254.46 77.8521C253.378 77.5727 246.163 75.5455 238.437 73.36C218.997 67.8946 209.924 66.4164 198.208 66.8104C193.399 66.9818 192.309 67.1973 192.908 67.8706Z" fill="black"/>
<path d="M160.726 121.569C160.738 121.969 161.04 122.182 161.329 121.995C161.676 121.771 161.779 121.296 161.593 121.008C161.37 120.663 161.105 120.507 160.989 120.582C160.816 120.694 160.676 121.111 160.726 121.569Z" fill="black"/>
<path d="M159.908 136.788C159.92 137.188 160.222 137.401 160.511 137.214C160.858 136.989 160.961 136.515 160.775 136.227C160.551 135.882 160.287 135.726 160.171 135.801C159.998 135.913 159.858 136.33 159.908 136.788Z" fill="black"/>
<path d="M274.561 89.6641C274.553 90.159 274.755 90.5992 275.04 90.6597C275.706 90.8008 276.378 89.305 275.932 88.6144C275.485 87.9238 274.502 88.5594 274.561 89.6641Z" fill="black"/>
<path d="M146.791 183.707C145.183 188.828 143.914 195.361 144.484 195.482C144.616 195.56 145.305 193.074 146.022 189.999C146.681 186.961 147.757 182.919 148.397 181.118C148.999 179.26 149.23 177.968 148.94 178.155C148.594 178.379 147.657 180.862 146.791 183.707Z" fill="black"/>
<path d="M265.459 104.118C265.757 104.579 266.195 104.622 266.372 104.262C266.607 103.866 266.578 103.313 266.355 102.968C266.169 102.68 265.789 102.599 265.442 102.824C265.153 103.011 265.124 103.6 265.459 104.118Z" fill="black"/>
<path d="M262.348 111.353C262.361 111.753 262.662 111.966 262.951 111.779C263.298 111.555 263.401 111.08 263.215 110.792C262.992 110.447 262.727 110.292 262.612 110.366C262.438 110.478 262.298 110.896 262.348 111.353Z" fill="black"/>
<path d="M259.005 125.838C259.191 126.125 259.555 126.053 259.732 125.694C259.967 125.297 260.013 124.86 259.901 124.687C259.827 124.572 259.521 124.606 259.174 124.831C258.885 125.018 258.782 125.492 259.005 125.838Z" fill="black"/>
<path d="M259.009 140.933C259.418 141.566 259.703 141.626 259.579 141.054C259.492 140.539 259.099 140.058 258.814 139.998C258.492 139.88 258.542 140.337 259.009 140.933Z" fill="black"/>
<path d="M118.092 237.846C118.608 237.757 119.091 237.363 119.153 237.079C119.272 236.756 118.814 236.808 118.215 237.277C117.579 237.688 117.517 237.973 118.092 237.846Z" fill="black"/>
<path d="M261.248 155.807C261.657 156.44 261.942 156.501 261.818 155.928C261.731 155.413 261.338 154.933 261.053 154.872C260.731 154.754 260.781 155.211 261.248 155.807Z" fill="black"/>
<path d="M115.228 252.184C114.931 252.866 115.022 253.134 115.426 252.872C115.773 252.648 116.108 252.023 116.095 251.624C116.111 250.634 115.88 250.783 115.228 252.184Z" fill="black"/>
<path d="M114.819 259.794C114.831 260.194 115.075 260.444 115.422 260.22C115.711 260.033 115.988 259.446 115.975 259.046C115.925 258.589 115.719 258.396 115.372 258.62C115.083 258.807 114.769 259.336 114.819 259.794Z" fill="black"/>
<path d="M125.979 271.347C126.984 272.901 128.129 274.038 128.418 273.851C128.765 273.627 128.14 272.154 127.136 270.6C126.094 268.988 125.044 267.872 124.697 268.096C124.408 268.283 124.937 269.736 125.979 271.347Z" fill="black"/>
<path d="M116.479 275.042C116.492 275.442 116.736 275.692 117.083 275.468C117.372 275.281 117.648 274.694 117.636 274.294C117.586 273.837 117.379 273.644 117.032 273.868C116.743 274.055 116.43 274.584 116.479 275.042Z" fill="black"/>
<path d="M126.987 286.854C127.769 288.063 133.128 290.392 133.88 289.906C134.689 289.382 134.445 289.132 130.664 287.088C127.052 285.18 125.871 285.128 126.987 286.854Z" fill="black"/>
<path d="M271.885 193.814C272.295 194.447 272.58 194.508 272.455 193.935C272.368 193.42 271.976 192.94 271.691 192.879C271.368 192.761 271.418 193.218 271.885 193.814Z" fill="black"/>
<path d="M278.961 216.17C279.371 216.803 279.656 216.863 279.532 216.291C279.445 215.776 279.052 215.295 278.767 215.235C278.444 215.117 278.494 215.574 278.961 216.17Z" fill="black"/>
<path d="M282.523 231.821C282.932 232.454 283.217 232.515 283.093 231.942C283.006 231.427 282.613 230.947 282.328 230.886C282.006 230.768 282.055 231.225 282.523 231.821Z" fill="black"/>
<path d="M272.601 242.725C272.61 244.515 272.871 246.059 273.156 246.12C274.297 246.362 274.94 244.314 274.645 241.322C274.4 238.787 274.198 238.347 273.446 238.833C272.983 239.132 272.612 240.841 272.601 242.725Z" fill="black"/>
<path d="M283.295 239.483C283.593 239.943 284.031 239.986 284.208 239.627C284.443 239.23 284.414 238.677 284.191 238.332C284.005 238.044 283.625 237.964 283.278 238.188C282.989 238.375 282.96 238.965 283.295 239.483Z" fill="black"/>
<path d="M283.865 246.704C284.795 248.142 285.217 248.033 284.84 246.563C284.773 245.953 284.323 245.51 283.922 245.524C283.426 245.518 283.456 246.071 283.865 246.704Z" fill="black"/>
<path d="M272.548 260.142C272.405 261.949 272.653 263.094 273.149 263.1C274.046 263.091 275.447 257.778 274.815 256.8C273.996 255.533 272.766 257.308 272.548 260.142Z" fill="black"/>
<path d="M283.456 254.313C283.469 254.713 283.845 255.041 284.34 255.047C284.741 255.033 284.881 254.616 284.584 254.155C283.914 253.119 283.455 253.171 283.456 254.313Z" fill="black"/>
<path d="M282.406 261.439C282.439 261.744 282.869 262.282 283.361 262.535C284.043 262.829 284.2 262.564 283.873 261.552C283.418 260.214 282.389 260.144 282.406 261.439Z" fill="black"/>
<path d="M280.985 267.989C280.865 268.312 281.064 268.999 281.398 269.517C281.94 270.228 282.056 270.153 281.96 268.991C281.889 267.486 281.195 266.793 280.985 267.989Z" fill="black"/>
<path d="M201.631 319.872C201.742 320.045 202.523 320.111 203.383 320.045C204.242 319.979 204.837 319.758 204.762 319.643C204.651 319.47 203.87 319.404 203.01 319.469C202.151 319.535 201.556 319.757 201.631 319.872Z" fill="black"/>
<path d="M209.994 315.688C210.007 316.088 210.325 316.453 210.726 316.439C211.127 316.425 211.209 316.045 210.911 315.585C210.279 314.606 210.031 314.603 209.994 315.688Z" fill="black"/>
<path d="M209.645 319.586C209.757 319.759 210.538 319.825 211.397 319.759C212.256 319.693 212.851 319.472 212.777 319.357C212.665 319.184 211.884 319.118 211.025 319.184C210.166 319.25 209.571 319.471 209.645 319.586Z" fill="black"/>
<path d="M269.759 289.938C269.475 291.019 270.227 291.675 270.85 290.864C271.143 290.43 272.453 290.807 274.003 291.682C276.458 293.196 278.879 293.263 280.96 291.917C281.712 291.431 281.637 291.316 280.303 291.281C279.427 291.194 278.729 290.748 278.699 290.196C278.707 289.701 278.501 289.508 278.249 289.753C278.034 290.055 276.225 289.919 274.287 289.458C270.771 288.712 270.007 288.798 269.759 289.938Z" fill="black"/>
<path d="M236.376 315.278C237.364 315.537 248.528 311.5 254.294 308.752C257.561 307.21 263.913 303.593 268.327 300.657L276.422 295.423L266.584 301.131C261.137 304.245 256.268 306.986 255.805 307.285C254.69 307.843 240.696 313.463 237.896 314.458C236.822 314.826 236.091 315.217 236.376 315.278Z" fill="black"/>
<path d="M244.731 310.447C244.434 311.128 244.525 311.396 244.93 311.134C245.276 310.91 245.611 310.286 245.598 309.886C245.614 308.896 245.383 309.046 244.731 310.447Z" fill="black"/>
<path d="M139.803 405.074C139.803 405.074 139.803 390.239 143.422 388.543C146.204 386.914 149.519 386.44 152.705 386.935C157.367 387.661 165.248 388.543 175.992 388.543C176.304 388.543 176.609 388.543 176.908 388.544C185.139 388.552 191.214 396.873 191.914 405.074C192.276 409.313 185.762 411.008 189.381 415.247C192.276 418.638 193 434.179 193 441.526C190.829 442.233 180.189 445.341 155.002 452.123C129.815 458.905 110.008 452.123 103.253 447.884C102.601 446.14 103.415 434.744 103.415 434.744C103.415 434.744 104.565 428.631 105.424 425.843C109.188 413.636 162.333 420.519 147.765 409.313C144.91 407.117 139.803 405.074 139.803 405.074Z" fill="#FF4F4F"/>
<path d="M103.415 434.744C103.415 434.744 104.565 428.631 105.424 425.843C109.188 413.636 162.333 420.519 147.765 409.313C144.91 407.117 139.803 405.074 139.803 405.074C139.803 405.074 139.803 390.239 143.422 388.543V388.543C146.204 386.914 149.519 386.44 152.705 386.935C157.367 387.661 165.248 388.543 175.992 388.543C176.304 388.543 176.609 388.543 176.908 388.544C185.139 388.552 191.214 396.873 191.914 405.074V405.074C192.276 409.313 185.762 411.008 189.381 415.247C192.276 418.638 193 434.179 193 441.526C190.829 442.233 180.189 445.341 155.002 452.123C129.815 458.905 110.008 452.123 103.253 447.884C102.601 446.14 103.415 434.744 103.415 434.744ZM103.415 434.744C103.415 434.744 129.346 445.171 151.059 439.407C172.773 433.642 192.14 427.256 192.381 427.963" stroke="black" stroke-width="7"/>
<path d="M256.197 405.074C256.197 405.074 254.16 395.696 253.135 391.041C252.784 389.443 251.781 388.076 250.369 387.249C249.002 386.449 247.377 386.216 245.819 386.506C241.839 387.248 233.025 388.543 220.009 388.543C219.697 388.543 219.391 388.543 219.092 388.544C210.861 388.552 204.786 396.873 204.086 405.074C203.724 409.313 210.238 411.008 206.619 415.247C203.724 418.638 203 434.179 203 441.526C205.171 442.233 215.811 445.341 240.998 452.123C266.185 458.905 285.992 452.123 292.747 447.884C293.399 446.14 292.585 434.744 292.585 434.744C292.585 434.744 291.435 428.631 290.576 425.843C286.812 413.636 233.667 420.519 248.236 409.313C251.09 407.117 256.197 405.074 256.197 405.074Z" fill="#FF4F4F"/>
<path d="M292.585 434.744C292.585 434.744 291.435 428.631 290.576 425.843C286.812 413.636 233.667 420.519 248.236 409.313C251.09 407.117 256.197 405.074 256.197 405.074C256.197 405.074 254.159 395.696 253.135 391.041C252.784 389.443 251.781 388.076 250.369 387.249V387.249C249.002 386.449 247.377 386.216 245.819 386.506C241.839 387.248 233.025 388.543 220.009 388.543C219.697 388.543 219.391 388.543 219.092 388.544C210.861 388.552 204.786 396.873 204.086 405.074V405.074C203.724 409.313 210.238 411.008 206.619 415.247C203.724 418.638 203 434.179 203 441.526C205.171 442.233 215.811 445.341 240.998 452.123C266.185 458.905 285.992 452.123 292.747 447.884C293.399 446.14 292.585 434.744 292.585 434.744ZM292.585 434.744C292.585 434.744 266.654 445.171 244.941 439.407C223.228 433.642 203.861 427.256 203.619 427.963" stroke="black" stroke-width="7"/>
<circle cx="200.393" cy="192.393" r="45.3933" fill="#F2F4F3" stroke="black" stroke-width="2"/>
<circle cx="200.394" cy="192.393" r="27.996" fill="black"/>
<circle cx="210.792" cy="168.397" r="9.59862" fill="white"/>
<path d="M157.586 264.188C191.147 284.003 207.573 282.097 234.205 264.188" stroke="black" stroke-width="3"/>
<path d="M182.891 280.004C195.515 286.892 201.694 286.229 211.711 280.004" stroke="black" stroke-width="3"/>
<path d="M158.289 259.619C155.096 262.006 154.027 263.669 153.72 267.352M234.205 259.619C236.541 262.285 237.427 263.961 238.071 267.352" stroke="black" stroke-width="3"/>
<path d="M206.903 107.275C190.945 107.276 165.73 98.0581 162.946 97.0206L117.946 97.1313C117.944 97.1313 117.941 97.1313 117.939 97.1313C117.118 97.1313 116.335 96.7874 115.779 96.1849C115.22 95.5794 114.942 94.7682 115.01 93.9482L118.922 47.0361C120.542 33.0046 128.409 23.2749 139.973 20.9177L186.495 11.4291C186.102 10.5317 185.891 9.53824 185.905 8.49778L185.916 7.73066C185.942 5.83293 186.706 4.05866 188.067 2.73505C189.428 1.41145 191.213 0.699187 193.119 0.724659L198.454 0.801081C202.368 0.856925 205.509 4.08707 205.455 8.00106L205.444 8.76818C205.429 9.81354 205.192 10.8217 204.753 11.7358L250.776 21.5516C267.075 25.0619 274.955 38.6027 276.904 50.1252L281.47 72.5393C301.133 75.9909 317.095 81.5214 324.268 84.2499C332.63 86.9804 332.872 89.6266 332.979 90.7984C333.441 95.8479 325.716 96.5552 322.003 96.8952C298.375 99.0614 266.588 90.6073 260.996 89.0506C250.761 91.8535 241.675 95.7901 233.828 99.1897C224.761 103.118 216.93 106.51 210.013 107.143C209.028 107.233 207.985 107.275 206.903 107.275ZM171.339 93.718C180.982 96.9158 199.01 102.235 209.479 101.289C215.454 100.742 222.876 97.5277 231.471 93.8059C231.478 93.8027 231.486 93.7995 231.493 93.7963C231.496 93.7949 231.499 93.7935 231.503 93.7921C239.746 90.221 249.312 86.0769 260.212 83.1683C260.238 83.1605 260.264 83.1536 260.291 83.1477C265.962 81.639 271.993 80.4643 278.385 79.8794C280.837 79.655 283.39 79.5149 286.007 79.4561C279.382 78.112 272.245 76.9667 264.835 76.2426C254.464 75.3913 243.994 75.3766 233.554 76.1995C205.794 79.0946 183.738 87.8181 172.792 92.9146C172.297 93.183 171.812 93.4515 171.339 93.718ZM274.315 86.2691C286.779 89.028 306.215 92.4335 321.469 91.0413C322.708 90.9277 323.71 90.7974 324.518 90.6642C323.762 90.3663 322.732 89.9676 321.448 89.4934C312.565 86.8432 295.465 84.2176 278.92 85.7322C277.366 85.8753 275.829 86.0546 274.315 86.2691ZM195.703 15.8173C194.829 15.8192 193.953 15.9084 193.097 16.0828L141.149 26.6775C132.198 28.5017 126.076 36.3307 124.772 47.6181L121.135 91.2451L160.844 91.1481L160.983 54.4223C160.983 44.0352 163.078 31.1313 179.409 23.5826C179.451 23.563 179.494 23.5453 179.537 23.5267L192.535 18.2519C194.04 17.6435 195.754 18.3665 196.364 19.8704C196.974 21.3743 196.249 23.0888 194.746 23.6992L181.814 28.9456C168.676 35.0463 166.863 44.7994 166.863 54.4321L166.73 89.2847C167.844 88.7243 169.157 88.0845 170.657 87.386C183.682 80.4143 203.314 73.0458 230.593 70.5495C231.396 70.476 232.201 70.4064 233.005 70.3428C233.77 70.2634 234.54 70.1889 235.314 70.1184C246.665 69.0779 258.01 69.4826 268.674 70.6847C270.872 70.9032 273.065 71.1569 275.252 71.4489L271.137 51.247C271.131 51.2137 271.124 51.1804 271.119 51.1461C270.335 46.4718 266.462 30.9403 249.546 27.2957L195.703 15.8173ZM193.018 6.60299C192.587 6.60299 192.3 6.81951 192.166 6.94982C192.03 7.08208 191.8 7.37012 191.795 7.81099L191.784 8.57811C191.775 9.25216 192.316 9.80963 192.991 9.81943L198.324 9.89486C198.765 9.92523 199.06 9.68129 199.196 9.54902C199.333 9.41676 199.561 9.12872 199.567 8.68784L199.578 7.92072C199.586 7.24667 199.046 6.68921 198.371 6.67941L193.036 6.60299C193.03 6.60299 193.024 6.60299 193.018 6.60299Z" fill="black"/>
<path d="M195.703 15.8173C194.829 15.8192 193.953 15.9084 193.097 16.0828L141.149 26.6775C132.198 28.5017 126.076 36.3307 124.772 47.6181L121.135 91.2451L160.844 91.1481L160.983 54.4223C160.983 44.0352 163.078 31.1313 179.409 23.5826C179.451 23.563 179.494 23.5453 179.537 23.5267L192.535 18.2519C194.04 17.6435 195.754 18.3665 196.364 19.8704C196.974 21.3743 196.249 23.0888 194.746 23.6992L181.814 28.9456C168.676 35.0463 166.863 44.7994 166.863 54.4321L166.73 89.2847C167.844 88.7243 169.157 88.0845 170.657 87.386C183.682 80.4143 203.314 73.0458 230.593 70.5495C231.396 70.476 232.201 70.4064 233.005 70.3428C233.77 70.2634 234.54 70.1889 235.314 70.1184C246.665 69.0779 258.01 69.4826 268.674 70.6847C270.872 70.9032 273.065 71.1569 275.252 71.4489L271.137 51.247C271.131 51.2137 271.124 51.1804 271.119 51.1461C270.335 46.4718 266.462 30.9403 249.546 27.2957L195.703 15.8173Z" fill="#FF0000"/>
<path d="M171.339 93.718C180.982 96.9158 199.01 102.235 209.479 101.289C215.454 100.742 222.876 97.5277 231.471 93.8059L231.493 93.7963L231.503 93.7921C239.746 90.221 249.312 86.0769 260.212 83.1683C260.238 83.1605 260.264 83.1536 260.291 83.1477C265.962 81.639 271.993 80.4643 278.385 79.8794C280.837 79.655 283.39 79.5149 286.007 79.4561C279.382 78.112 272.245 76.9667 264.835 76.2426C254.464 75.3913 243.994 75.3766 233.554 76.1995C205.794 79.0946 183.738 87.8181 172.792 92.9146C172.297 93.183 171.812 93.4515 171.339 93.718Z" fill="#FF0000"/>
</svg>
