<svg
  width="184"
  height="187"
  viewBox="0 0 184 187"
  fill="none"
  xmlns="http://www.w3.org/2000/svg"
>
  <path
    d="M59.5431 -121V-68.4178H35.0254V-1.98592M35.0254 -1.98592H92M35.0254 -1.98592V-92.3615H10.7411V-119.826M35.0254 -1.98592V-11.1408L0 -46.1174M35.0254 -1.98592H10.7411V79.7042H35.0254M35.0254 -1.98592V22.2446M92 -1.98592L35.0254 55.0563M92 -1.98592V79.939M92 -1.98592V170.08M92 -1.98592L59.5431 30.6432M92 -1.98592V252.005M92 -1.98592V-121V-91.892M92 -1.98592H148.975M92 -1.98592L148.975 55.0563M92 -1.98592L124.457 30.6432M39.2284 -121L35.0254 -116.775V-59.0282M35.0254 -59.0282L92 -1.75118M35.0254 -59.0282V-93.0657L9.1066 -119.122M92 -1.75118L46.934 -47.0563M92 -1.75118L148.975 -59.0282M92 -1.75118L137.066 -47.0563M92 -91.892L46.934 -47.0563M92 -91.892L137.066 -47.0563M46.934 -47.0563L0 0.126757M35.0254 55.0563V194.023M35.0254 55.0563V113.038L92 169.845M35.0254 55.0563V170.08M0 172.192L92 79.939M92 79.939L184 172.192M92 279V169.845M92 169.845L148.975 113.038V55.0563M92 170.08L35.0254 227.357V279V251.77H10.7411V170.08H35.0254M92 170.08L148.975 227.357V279V251.77H173.259V170.08H148.975M35.0254 170.08V160.925L0 125.948M35.0254 170.08H91.7665M0 216.089L35.0254 251.3M0 194.023H59.5431V275.714H35.0254M35.0254 103.648H59.5431V30.6432M59.5431 30.6432V22.1925H0M0 44.0235L35.0254 79M65.1472 279L92 252.005M92 252.005L118.853 279M124.457 -121V-68.4178H148.975V-1.98592M148.975 -1.98592V-92.3615H173.259V-119.826M148.975 -1.98592V-11.1408L184 -46.1174M148.975 -1.98592H173.259V79.7042H148.975M148.975 -1.98592V22.2446M144.772 -121L148.975 -116.775V-59.0282M148.975 -59.0282V-93.0657L174.893 -119.122M137.066 -47.0563L184 0.126757M148.975 55.0563V194.023M148.975 55.0563V170.08M148.975 170.08V160.925L184 125.948M148.975 170.08H92.2335M184 216.089L148.975 251.3M184 194.023H124.457V275.714H148.975M148.975 103.648H124.457V30.6432M124.457 30.6432V22.1925H184M184 44.0235L148.975 79"
    stroke="url(#paint0_linear_3253_416)"
  />
  <defs>
    <linearGradient
      id="paint0_linear_3253_416"
      x1="92"
      y1="3.00001"
      x2="92"
      y2="219"
      gradientUnits="userSpaceOnUse"
    >
      <stop offset="0.0181544" stop-color="white" stop-opacity="0.08" />
      <stop offset="0.362882" stop-color="white" stop-opacity="0.03" />
      <stop offset="1" stop-color="white" stop-opacity="0.08" />
    </linearGradient>
  </defs>
</svg>
